<svg xmlns="http://www.w3.org/2000/svg" width="74.637" height="120" viewBox="0 0 74.637 120">
  <g id="Group_94" data-name="Group 94" transform="translate(-113.624 -49.978)">
    <g id="Group_88" data-name="Group 88" transform="translate(142.95 101.962)">
      <path id="Path_61" data-name="Path 61" d="M125.821,68.716l-6.337-8.355v66.812h15.978V60.361l-6.332,8.355a2.076,2.076,0,0,1-3.309,0Z" transform="translate(-119.484 -60.361)" fill="none"/>
    </g>
    <g id="Group_89" data-name="Group 89" transform="translate(114.822 98.013)">
      <path id="Path_62" data-name="Path 62" d="M139,59.572H123.866a10,10,0,0,0-10,10v60.765h28.127V63.522Z" transform="translate(-113.865 -59.572)" fill="none"/>
    </g>
    <g id="Group_90" data-name="Group 90" transform="translate(158.928 98.013)">
      <path id="Path_63" data-name="Path 63" d="M150.8,69.568a10,10,0,0,0-10-10H125.674l-3,3.95V130.33H150.8Z" transform="translate(-122.676 -59.572)" fill="none"/>
    </g>
    <g id="Group_91" data-name="Group 91" transform="translate(165.77 133.612)">
      <circle id="Ellipse_6" data-name="Ellipse 6" cx="6.36" cy="6.36" r="6.36" transform="translate(0 0)" fill="#0c1117"/>
    </g>
    <g id="Group_92" data-name="Group 92" transform="translate(121.85 116.134)">
      <path id="Path_64" data-name="Path 64" d="M128.79,82.609a2.159,2.159,0,0,1-2.162-2.157V68.228a.717.717,0,0,0-.721-.716h-5.6a.717.717,0,0,0-.721.716V80.452a2.16,2.16,0,1,1-4.32,0V68.228a5.041,5.041,0,0,1,5.041-5.036h5.6a5.041,5.041,0,0,1,5.041,5.036V80.452a2.158,2.158,0,0,1-2.158,2.157Z" transform="translate(-115.269 -63.192)" fill="#0c1117"/>
    </g>
    <g id="Group_93" data-name="Group 93" transform="translate(119.624 51.171)">
      <path id="Path_65" data-name="Path 65" d="M165.922,50.623h0a15,15,0,0,0-14.081,3.985l-4.4,4.4a1.834,1.834,0,0,1-2.593,0l-4.4-4.4a14.99,14.99,0,0,0-14.076-3.985h0a14.994,14.994,0,0,0-8.48,23.647l3.068,4.05,3.619,4.776,19.918,26.265a2.076,2.076,0,0,0,3.309,0L167.709,83.1l3.624-4.776,3.069-4.05a15,15,0,0,0-8.48-23.651Z" transform="translate(-114.824 -50.214)" fill="none"/>
    </g>
    <path id="Path_66" data-name="Path 66" d="M182.5,60.7A16.152,16.152,0,0,0,171,50.408l-.275,1.171L171,50.408a16.3,16.3,0,0,0-15.2,4.3l-4.4,4.405a.628.628,0,0,1-.9,0l-4.4-4.405a16.2,16.2,0,0,0-24.363,21.239l26.606,35.09a3.276,3.276,0,0,0,5.221,0l26.606-35.09A16.149,16.149,0,0,0,182.5,60.7Zm-30.86,48.9a.873.873,0,0,1-.7.345.863.863,0,0,1-.7-.345L123.634,74.51a13.8,13.8,0,0,1,7.8-21.76,13.514,13.514,0,0,1,3.159-.37,13.917,13.917,0,0,1,9.8,4.036l4.4,4.4a3.039,3.039,0,0,0,4.29,0l4.405-4.4a13.8,13.8,0,0,1,20.749,18.1Zm-19.152,5.336h-1.677V103.074a3.87,3.87,0,0,1,3.864-3.864,1.2,1.2,0,0,0,0-2.4h-9.851a11.207,11.207,0,0,0-11.2,11.2v60.765a1.2,1.2,0,1,0,2.4,0V108.009a8.809,8.809,0,0,1,8.8-8.8h4.926a6.248,6.248,0,0,0-1.342,3.864v11.859h-1.517a6.246,6.246,0,0,0-6.242,6.237v12.224a3.367,3.367,0,0,0,2.162,3.134v6.548a4.464,4.464,0,0,0,4.46,4.46,1.2,1.2,0,1,0,0-2.4,2.065,2.065,0,0,1-2.062-2.057V136.53a3.367,3.367,0,0,0,2.163-3.134V121.65h4.635v11.743a3.367,3.367,0,0,0,2.163,3.134v6.548a2.065,2.065,0,0,1-2.062,2.057,1.2,1.2,0,1,0,0,2.4,4.464,4.464,0,0,0,4.46-4.46v-6.548a3.367,3.367,0,0,0,2.162-3.134V121.17a6.246,6.246,0,0,0-6.242-6.238Zm0,4.32h-5.6a1.922,1.922,0,0,0-1.922,1.917V133.4a.959.959,0,1,1-1.917,0V121.17a3.843,3.843,0,0,1,3.839-3.839h5.6a3.848,3.848,0,0,1,3.844,3.839v12.224a.961.961,0,1,1-1.922,0V121.17a1.922,1.922,0,0,0-1.922-1.918Zm44.571-22.441h-9.991a1.2,1.2,0,0,0,0,2.4,3.873,3.873,0,0,1,3.864,3.864v29.434a7.561,7.561,0,1,0,2.4,0V103.074a6.244,6.244,0,0,0-1.337-3.864h5.066a8.812,8.812,0,0,1,8.8,8.8v60.765a1.2,1.2,0,1,0,2.4,0V108.009a11.207,11.207,0,0,0-11.2-11.2Zm.23,43.16a5.158,5.158,0,1,1-5.156-5.161,5.158,5.158,0,0,1,5.156,5.161Zm-33.138-11.759v40.562a1.2,1.2,0,1,1-2.4,0V128.213a1.2,1.2,0,0,1,2.4,0Zm0-4.961v1.281a1.2,1.2,0,1,1-2.4,0v-1.281a1.2,1.2,0,0,1,2.4,0Zm0-15.122v11.443a1.2,1.2,0,1,1-2.4,0V108.13a1.2,1.2,0,0,1,2.4,0Zm15.978,0v40.722a1.2,1.2,0,0,1-2.4,0V108.13a1.2,1.2,0,0,1,2.4,0Zm0,45.042v.8a1.2,1.2,0,0,1-2.4,0v-.8a1.2,1.2,0,1,1,2.4,0Zm0,4.56v11.043a1.2,1.2,0,0,1-2.4,0V157.732a1.2,1.2,0,1,1,2.4,0Zm-7.989-41.6v52.64a1.2,1.2,0,0,1-2.4,0v-52.64a1.2,1.2,0,1,1,2.4,0Zm-25.469,37.838v14.8a1.2,1.2,0,0,1-2.4,0v-14.8a1.2,1.2,0,1,1,2.4,0Zm50.938,0v14.8a1.2,1.2,0,1,1-2.4,0v-14.8a1.2,1.2,0,1,1,2.4,0Z" fill="#fd363b"/>
  </g>
</svg>
