<svg xmlns="http://www.w3.org/2000/svg" width="85.735" height="119.997" viewBox="0 0 85.735 119.997">
  <g id="Group_49" data-name="Group 49" transform="translate(-548.923 -50.724)">
    <g id="Group_43" data-name="Group 43" transform="translate(553.969 65.042)">
      <g id="Group_40" data-name="Group 40" transform="translate(0 12.469)">
        <path id="Path_21" data-name="Path 21" d="M592.577,56.073H579.738a5.064,5.064,0,0,0-5.06,5.065v.4a5.461,5.461,0,0,0-5.461-5.461h-13.83a5.46,5.46,0,0,0-5.456,5.461V82.4a1.536,1.536,0,0,0,1.536,1.532h3.985V114.6h13.7V83.928h3.984a1.536,1.536,0,0,0,1.537-1.532v24.977h4.34V114.6H593.3v-7.228h4.34V61.138a5.061,5.061,0,0,0-5.063-5.065Z" transform="translate(-549.931 -56.073)" fill="none"/>
      </g>
      <g id="Group_41" data-name="Group 41" transform="translate(2.598)">
        <path id="Path_22" data-name="Path 22" d="M570,56.275a9.747,9.747,0,0,0-.375-2.693h-18.8A9.777,9.777,0,1,0,570,56.275Z" transform="translate(-550.45 -53.582)" fill="none"/>
      </g>
      <g id="Group_42" data-name="Group 42" transform="translate(26.449)">
        <path id="Path_23" data-name="Path 23" d="M574.771,56.275a9.759,9.759,0,0,0-.38-2.693H555.6a9.777,9.777,0,1,0,19.176,2.693Z" transform="translate(-555.215 -53.582)" fill="none"/>
      </g>
    </g>
    <g id="Group_44" data-name="Group 44" transform="translate(586.474 51.922)">
      <path id="Path_24" data-name="Path 24" d="M562.742,57.348a3.724,3.724,0,1,0-5.186,0,9.769,9.769,0,0,1,5.186,0Z" transform="translate(-556.425 -50.961)" fill="#0c1117"/>
    </g>
    <g id="Group_45" data-name="Group 45" transform="translate(556.942 57.959)">
      <path id="Path_25" data-name="Path 25" d="M559.925,52.167a9.781,9.781,0,0,0-9.4,7.082h18.8A9.782,9.782,0,0,0,559.925,52.167Z" transform="translate(-550.525 -52.167)" fill="#0c1117"/>
    </g>
    <g id="Group_46" data-name="Group 46" transform="translate(580.798 57.959)">
      <path id="Path_26" data-name="Path 26" d="M564.691,52.167a9.773,9.773,0,0,0-9.4,7.083h18.8a9.772,9.772,0,0,0-9.4-7.083Z" transform="translate(-555.291 -52.167)" fill="#0c1117"/>
    </g>
    <g id="Group_47" data-name="Group 47" transform="translate(550.125 136.038)">
      <path id="Path_27" data-name="Path 27" d="M615.75,67.766a16.7,16.7,0,0,0-11.187,4.29V69.763a2,2,0,0,0-1.992-2H551.155a2,2,0,0,0-1.992,2v4.38a1.991,1.991,0,0,0,1.992,1.992,2,2,0,0,0-1.992,2v4.38a2,2,0,0,0,1.992,2,1.991,1.991,0,0,0-1.992,1.992v4.38a2,2,0,0,0,1.992,2,1.991,1.991,0,0,0-1.992,1.992v4.38a2,2,0,0,0,1.992,2h51.416a2,2,0,0,0,1.992-2v-2.3A16.74,16.74,0,1,0,615.75,67.766ZM601.259,92.878ZM601.259,76.135Z" transform="translate(-549.163 -67.766)" fill="none"/>
    </g>
    <path id="Path_28" data-name="Path 28" d="M552.767,91.16v-.841a1.2,1.2,0,0,1,2.4,0v.841a1.2,1.2,0,0,1-2.4,0Zm48.908-2.217a1.2,1.2,0,0,0-1.2,1.2V91.22a1.2,1.2,0,0,0,2.4,0V90.144a1.2,1.2,0,0,0-1.2-1.2Zm32.976,63.839a17.928,17.928,0,0,1-27.935,14.886,3.193,3.193,0,0,1-3.183,3.053H552.116a3.2,3.2,0,0,1-3.193-3.2v-4.38a3.184,3.184,0,0,1,.7-1.992,3.206,3.206,0,0,1-.7-2v-4.38a3.184,3.184,0,0,1,.7-1.992,3.206,3.206,0,0,1-.7-2V146.4a3.207,3.207,0,0,1,.7-2,3.183,3.183,0,0,1-.7-1.992v-4.38a3.2,3.2,0,0,1,3.193-3.193h6.172V106.566H555.5a2.741,2.741,0,0,1-2.738-2.733V94.959a1.2,1.2,0,1,1,2.4,0v8.875a.335.335,0,0,0,.335.335h2.783V88.642a1.2,1.2,0,1,1,2.4,0v46.2h4.45v-23.16a1.2,1.2,0,1,1,2.4,0v23.16h4.45v-46.2a1.2,1.2,0,1,1,2.4,0v15.527h2.783a.336.336,0,0,0,.335-.335V82.971a4.266,4.266,0,0,0-4.26-4.26h-13.83a4.262,4.262,0,0,0-4.255,4.26V86.48a1.2,1.2,0,0,1-2.4,0V82.971a6.664,6.664,0,0,1,6.657-6.657h.08a10.96,10.96,0,0,1-3.714-11.6h0a10.976,10.976,0,0,1,21.1,0h0a10.958,10.958,0,0,1-3.714,11.6h.075a6.664,6.664,0,0,1,5.366,2.718,6.25,6.25,0,0,1,4.755-2.7,10.957,10.957,0,0,1-3.734-11.618h0a11.023,11.023,0,0,1,6.1-7,4.862,4.862,0,0,1-.461-2.072,4.918,4.918,0,1,1,9.836,0,4.862,4.862,0,0,1-.46,2.072,11.023,11.023,0,0,1,6.1,7h0a10.948,10.948,0,0,1-3.734,11.613,6.265,6.265,0,0,1,5.862,6.247V86.72a1.2,1.2,0,0,1-2.4,0V82.576a3.873,3.873,0,0,0-3.864-3.864H583.776a3.873,3.873,0,0,0-3.864,3.864v21.593h2.933a.335.335,0,0,0,.335-.335V88.642a1.2,1.2,0,1,1,2.4,0v15.191a2.736,2.736,0,0,1-2.733,2.733h-2.933v21.043h20.567V106.566h-2.928a2.737,2.737,0,0,1-2.738-2.733V88.642a1.2,1.2,0,1,1,2.4,0v15.191a.335.335,0,0,0,.335.335h2.928v-8.93a1.2,1.2,0,0,1,2.4,0v33.571a1.2,1.2,0,0,1-1.2,1.2H598.54v4.83h5a3.189,3.189,0,0,1,3.183,3.048,17.933,17.933,0,0,1,27.935,14.891Zm-46.976-97.14a2.464,2.464,0,0,0,.381,1.326l.25-.045.145-.025.285-.04.235-.03.235-.025c.1-.01.205-.015.31-.02l.18-.015c.165-.005.331-.01.5-.01s.33.005.5.01l.18.015c.1.005.21.01.31.02l.235.025.235.03.285.04.145.025.255.045a2.52,2.52,0,1,0-4.665-1.326Zm-5.12,8.2h15.281A8.632,8.632,0,0,0,592,59.355l-.025-.01c-.145-.03-.3-.055-.446-.08l-.16-.025c-.1-.015-.2-.02-.3-.03s-.2-.025-.3-.035h-.01a9.389,9.389,0,0,0-1.126,0h-.015c-.1.01-.205.02-.3.035s-.2.015-.3.03l-.16.025c-.15.025-.3.05-.445.08l-.03.01a8.633,8.633,0,0,0-5.818,4.485ZM590.2,76.314a8.585,8.585,0,0,0,8.574-8.579,8.751,8.751,0,0,0-.13-1.492h-16.9a8.739,8.739,0,0,0-.13,1.492A8.59,8.59,0,0,0,590.2,76.314ZM558.7,63.84h15.287a8.577,8.577,0,0,0-15.287,0Zm16.223,3.894a8.3,8.3,0,0,0-.135-1.494l-16.888,0a8.259,8.259,0,0,0-.135,1.492,8.579,8.579,0,0,0,17.158,0ZM591.4,134.842h4.74v-4.83H591.4Zm-7.138,0H589v-4.83h-4.74Zm-9.861,0h7.458v-4.83h-3.139a1.2,1.2,0,0,1-1.2-1.2V106.546c-.11.01-.22.02-.335.02H574.4Zm29.927,30.893a17.9,17.9,0,0,1,0-25.913v-1.787a.794.794,0,0,0-.791-.8H552.116a.8.8,0,0,0-.8.8v4.38a.8.8,0,0,0,.8.8h45.369a1.2,1.2,0,1,1,0,2.4H552.116a.8.8,0,0,0-.8.8v4.38a.8.8,0,0,0,.8.8h43.392a1.2,1.2,0,1,1,0,2.4H552.116a.8.8,0,0,0-.8.8v4.38a.8.8,0,0,0,.8.8h45.189a1.2,1.2,0,1,1,0,2.4H552.116a.8.8,0,0,0-.8.8v4.38a.8.8,0,0,0,.8.8h51.416a.794.794,0,0,0,.791-.8Zm27.93-12.954a15.539,15.539,0,1,0-15.539,15.537,15.539,15.539,0,0,0,15.539-15.537ZM621.5,150.554a5.8,5.8,0,0,1,1.732,4.134v1.652a5.813,5.813,0,0,1-2.382,4.7,3.91,3.91,0,0,1-7.578,1.031,3.906,3.906,0,0,1-1.346-7.063,5.8,5.8,0,0,1-1.732-4.139v-1.652a5.8,5.8,0,0,1,2.9-5.035,3.911,3.911,0,0,1,7.593-.541,3.91,3.91,0,0,1,.816,6.912Zm-5.886.315v-1.652a.4.4,0,0,1,.4-.4h3.309a1.509,1.509,0,0,0,0-3.018h-.856v-.991a1.512,1.512,0,0,0-3.023,0v1.041a3.426,3.426,0,0,0-2.848,3.369v1.652a3.423,3.423,0,0,0,3.419,3.419h1.4a.4.4,0,0,1,.4.4v1.652a.4.4,0,0,1-.4.4H614.1a1.509,1.509,0,1,0,0,3.018h1.336v.991a1.512,1.512,0,0,0,3.023,0v-1.156a3.419,3.419,0,0,0,2.368-3.254v-1.652a3.42,3.42,0,0,0-3.419-3.419h-1.4a.4.4,0,0,1-.393-.4Z" fill="#fd363b"/>
    <g id="Group_48" data-name="Group 48" transform="translate(612.592 143.301)">
      <path id="Path_29" data-name="Path 29" d="M566.463,77.186h-1.4a.4.4,0,0,1-.4-.4V75.133a.4.4,0,0,1,.4-.4h3.309a1.509,1.509,0,0,0,0-3.018h-.856v-.991a1.512,1.512,0,0,0-3.023,0v1.041a3.426,3.426,0,0,0-2.848,3.369v1.652a3.423,3.423,0,0,0,3.419,3.419h1.4a.4.4,0,0,1,.4.4v1.652a.4.4,0,0,1-.4.4h-3.309a1.509,1.509,0,1,0,0,3.018h1.336v.991a1.512,1.512,0,0,0,3.023,0V85.51a3.419,3.419,0,0,0,2.368-3.254V80.6a3.42,3.42,0,0,0-3.419-3.414Z" transform="translate(-561.643 -69.217)" fill="none"/>
    </g>
  </g>
</svg>
