<svg xmlns="http://www.w3.org/2000/svg" width="105.463" height="120.002" viewBox="0 0 105.463 120.002">
  <g id="Group_115" data-name="Group 115" transform="translate(-374.947 -49.975)">
    <g id="Group_107" data-name="Group 107" transform="translate(376.147 143.58)">
      <path id="Path_78" data-name="Path 78" d="M375.19,93.867h36.134a1.564,1.564,0,0,0,1.562-1.562V70.237a1.564,1.564,0,0,0-1.562-1.562H375.19" transform="translate(-375.19 -68.675)" fill="none"/>
    </g>
    <g id="Group_108" data-name="Group 108" transform="translate(413.843 136.913)">
      <path id="Path_79" data-name="Path 79" d="M443.987,67.343a4.126,4.126,0,0,0-1.792.415L419.441,78.845a7.641,7.641,0,0,1-3.354.771H414.27a3.926,3.926,0,0,0-3.379-1.927h-28.17v18.2H418.37a7.184,7.184,0,0,0,4.595-1.662l23.641-19.646a4.094,4.094,0,0,0-2.619-7.238Z" transform="translate(-382.721 -67.343)" fill="none"/>
    </g>
    <g id="Group_109" data-name="Group 109" transform="translate(414.734 82.539)">
      <path id="Path_80" data-name="Path 80" d="M412.386,72.227H390.512V59.543a3.063,3.063,0,0,0-3.063-3.063H382.9V75.806a17.866,17.866,0,0,1,4.83-.661,18.209,18.209,0,0,1,2.783.215,17.84,17.84,0,0,1,12.108,7.793l.06.085c.105.16.21.325.31.491h11.678V74.51A2.282,2.282,0,0,0,412.386,72.227Z" transform="translate(-382.899 -56.48)" fill="none"/>
    </g>
    <g id="Group_110" data-name="Group 110" transform="translate(406.402 74.863)">
      <rect id="Rectangle_35" data-name="Rectangle 35" width="8.333" height="4.599" rx="0.275" fill="#0c1117"/>
    </g>
    <g id="Group_111" data-name="Group 111" transform="translate(420.39 51.175)">
      <path id="Path_81" data-name="Path 81" d="M411.659,90.783h-13.6v-21.8h0a9.85,9.85,0,1,0-9.065-.36h-.05a2.964,2.964,0,0,0-2.963,2.968V97.325H407.86a2.281,2.281,0,0,1,2.282,2.282v21.608h5.286a2.226,2.226,0,0,0,2.227-2.227V96.779a6,6,0,0,0-6-6Z" transform="translate(-384.029 -50.214)" fill="none"/>
    </g>
    <g id="Group_112" data-name="Group 112" transform="translate(446.506 129.404)">
      <circle id="Ellipse_8" data-name="Ellipse 8" cx="3.755" cy="3.755" r="3.755" transform="translate(0 0)" fill="none"/>
    </g>
    <g id="Group_113" data-name="Group 113" transform="translate(416.447 115.943)">
      <circle id="Ellipse_9" data-name="Ellipse 9" cx="3.117" cy="3.117" r="3.117" transform="translate(0 0)" fill="none"/>
    </g>
    <g id="Group_114" data-name="Group 114" transform="translate(401.71 101.204)">
      <path id="Path_82" data-name="Path 82" d="M398.151,60.209a17.854,17.854,0,1,0,17.854,17.854,17.854,17.854,0,0,0-17.854-17.854Zm0,31.5a13.642,13.642,0,1,1,13.64-13.642,13.642,13.642,0,0,1-13.64,13.642Z" transform="translate(-380.297 -60.209)" fill="none"/>
    </g>
    <path id="Path_83" data-name="Path 83" d="M374.951,143.58a1.2,1.2,0,0,1,1.2-1.2h1.4a1.2,1.2,0,1,1,0,2.4h-1.4a1.2,1.2,0,0,1-1.2-1.2Zm103.542,1.5-23.635,19.646a8.406,8.406,0,0,1-5.366,1.937H415.044v.551a2.769,2.769,0,0,1-2.763,2.763H376.147a1.2,1.2,0,0,1,0-2.4H404.4v-22.79H381.869a1.2,1.2,0,1,1,0-2.4h30.413a2.769,2.769,0,0,1,2.763,2.763v.921h26.969a5.1,5.1,0,0,1,4,1.927h1.2a6.438,6.438,0,0,0,2.828-.656L472.8,136.255a5.4,5.4,0,0,1,2.318-.531,5.29,5.29,0,0,1,3.384,9.36Zm-65.846.065a.363.363,0,0,0-.365-.36H406.8v22.79h5.481a.363.363,0,0,0,.365-.36V145.142Zm65.186-5.116a2.833,2.833,0,0,0-2.723-1.912,2.931,2.931,0,0,0-1.266.29L451.089,149.5a8.97,8.97,0,0,1-3.879.891h-.135a5.225,5.225,0,0,1,.07.8,5.133,5.133,0,0,1-5.131,5.126h-21a1.2,1.2,0,1,1,0-2.4h21a2.728,2.728,0,1,0,0-5.456h-2.7v1.747a1.2,1.2,0,1,1-2.4,0v-1.747h-21.87v15.8h34.447a5.978,5.978,0,0,0,3.829-1.387l23.641-19.641a2.834,2.834,0,0,0,.872-3.206ZM419.564,133.9a14.8,14.8,0,0,1-10.466-4.325l-.03-.025-.02-.03a14.815,14.815,0,0,1-.03-20.893l.05-.065.065-.05a14.815,14.815,0,0,1,20.862,0l.06.05.05.065a14.809,14.809,0,0,1-.025,20.893l-.025.03-.025.025a14.8,14.8,0,0,1-10.466,4.325Zm7.9-5.241-5.821-5.821a4.242,4.242,0,0,1-.881.365v8.239a12.339,12.339,0,0,0,6.706-2.783Zm4.48-8.4H423.7a4.242,4.242,0,0,1-.365.881l5.821,5.821a12.4,12.4,0,0,0,2.787-6.7Zm-2.783-9.1-5.821,5.821a4.129,4.129,0,0,1,.361.881h8.244a12.4,12.4,0,0,0-2.78-6.706Zm-8.4,3.759a4.486,4.486,0,0,1,.876.365l5.826-5.821a12.393,12.393,0,0,0-6.7-2.783Zm-1.2,2.227a1.917,1.917,0,1,0,1.917,1.917,1.917,1.917,0,0,0-1.917-1.917Zm-7.9-7.683,5.821,5.821a4.409,4.409,0,0,1,.881-.365v-8.239a12.362,12.362,0,0,0-6.7,2.779Zm-4.48,8.4h8.239a4.136,4.136,0,0,1,.365-.881l-5.821-5.821a12.36,12.36,0,0,0-2.783,6.7Zm2.778,9.1,5.826-5.821a4.246,4.246,0,0,1-.365-.881h-8.239a12.386,12.386,0,0,0,2.778,6.7Zm8.4-3.759a4.135,4.135,0,0,1-.881-.365l-5.826,5.821a12.356,12.356,0,0,0,6.707,2.783Zm-19.341,13.71a1.2,1.2,0,0,1,1.2-1.2h10.1a19.047,19.047,0,0,1,3.214-34.728V82.539a1.2,1.2,0,0,1,1.2-1.2h4.55a4.224,4.224,0,0,1,1.862.43v-1.2a2.151,2.151,0,0,0-2.152-2.147h-3.083a2.581,2.581,0,0,1-2.553,2.232h-5.581a2.576,2.576,0,0,1-2.573-2.578V76.237a2.575,2.575,0,0,1,2.573-2.573h5.581a2.578,2.578,0,0,1,2.568,2.363h3.068a4.514,4.514,0,0,1,2.152.541v-4.02a4.154,4.154,0,0,1,1.682-3.339,11.046,11.046,0,1,1,12.8,1.457V90.543H448.02a7.2,7.2,0,0,1,7.2,7.2V119.95a3.431,3.431,0,0,1-3.429,3.429H447.7v5.541a4.952,4.952,0,1,1-2.4,4.24V110.99h-8.489a19.04,19.04,0,0,1-17.254,27.124H400.218a1.2,1.2,0,0,1-1.2-1.2Zm14.511-60.676a.174.174,0,0,0-.175-.175h-5.581a.177.177,0,0,0-.175.175v1.847a.178.178,0,0,0,.175.18h5.581a.175.175,0,0,0,.175-.18ZM445.3,100.568a1.084,1.084,0,0,0-1.086-1.081H423.544v.936c.16.035.32.075.475.115.12.025.235.05.35.08.19.05.375.105.566.16.11.035.22.065.33.1.19.06.38.125.566.19.105.035.21.07.315.11.2.07.391.15.586.23.09.035.18.07.27.11.22.09.44.2.656.3l.175.08c.265.13.526.26.781.4l.025.015a19.15,19.15,0,0,1,6.817,6.237l.025.04h9.826ZM433.224,97.09V71.668l-.12.03-.435.105-.245.055c-.19.04-.385.07-.581.1l-.245.03c-.15.02-.3.035-.461.045l-.22.02c-.225.015-.45.02-.681.02q-.315,0-.631-.015l-.155-.015c-.165-.01-.325-.025-.485-.045l-.16-.02c-.165-.02-.335-.045-.5-.075l-.12-.02c-.2-.04-.4-.08-.591-.13l-.02,0a11.412,11.412,0,0,1-1.236-.385l-.115-.045c-.15-.06-.3-.12-.445-.185l-.185-.085-.37-.18-.14-.07a1.771,1.771,0,0,0-1.537,1.752V97.09ZM447.7,133.159a2.555,2.555,0,1,0,2.558-2.553A2.555,2.555,0,0,0,447.7,133.159ZM435.627,92.946V97.09h8.594a3.485,3.485,0,0,1,3.484,3.479v20.407h4.085a1.027,1.027,0,0,0,1.026-1.026V97.741a4.8,4.8,0,0,0-4.8-4.8Zm-9.6-24.366c.12.065.24.125.36.185l.08.045c.155.075.315.145.471.21l.075.03c.14.055.285.11.431.16l.08.025a8.165,8.165,0,0,0,1.041.275h.01c.165.03.331.055.5.08l.11.015c.135.015.275.03.41.04l.13.01c.17.01.345.015.516.015.155,0,.31,0,.46-.015l.21-.015.24-.02c.085,0,.175-.02.26-.03l.18-.025c.1-.015.185-.035.28-.05l.155-.03c.1-.02.19-.045.28-.065l.155-.04.27-.075.16-.05.255-.09.17-.06.245-.1.16-.07a8.649,8.649,0,1,0-7.693-.36Zm-10.091,31.774c.23-.045.465-.085.7-.125l.115-.015c.245-.035.5-.065.741-.1l.22-.02c.28-.03.561-.05.846-.065l.115,0c.255-.01.511-.02.766-.02h.225c.28,0,.566,0,.851.02l.125.01c.17.01.335.02.505.035V85.6a1.865,1.865,0,0,0-1.862-1.862h-3.349Zm3.629,35.363a16.651,16.651,0,0,0,10.6-29.5l-.015-.01c-.185-.15-.37-.3-.561-.445l-.1-.07c-.17-.13-.35-.255-.526-.375l-.165-.11c-.16-.11-.33-.215-.5-.32l-.22-.135c-.155-.09-.31-.18-.471-.27l-.265-.145c-.15-.08-.3-.155-.456-.23l-.3-.145c-.145-.07-.29-.135-.44-.2l-.33-.135c-.145-.06-.29-.12-.44-.175-.115-.045-.23-.08-.345-.12-.145-.055-.3-.105-.446-.155-.115-.035-.23-.065-.345-.1-.155-.045-.31-.09-.465-.13-.115-.03-.23-.055-.35-.085-.155-.035-.31-.075-.47-.11-.125-.025-.255-.045-.385-.07s-.29-.055-.44-.08c-.576-.085-1.156-.145-1.742-.175h-.06c-.275-.015-.551-.02-.826-.02l-.13,0c-.25,0-.5.01-.751.025l-.18.01c-.23.02-.461.035-.691.06l-.255.035c-.2.025-.39.05-.586.08-.12.02-.24.04-.36.065-.155.03-.31.055-.466.09s-.3.065-.44.1l-.361.09a16.656,16.656,0,0,0,4.29,32.75Zm-25.928,2.4h1.306a1.2,1.2,0,1,0,0-2.4h-1.306a1.2,1.2,0,1,0,0,2.4Z" fill="#fd363b"/>
  </g>
</svg>
