<svg xmlns="http://www.w3.org/2000/svg" width="85.346" height="120.003" viewBox="0 0 85.346 120.003">
  <g id="Group_134" data-name="Group 134" transform="translate(-657.102 -46.889)">
    <g id="Group_128" data-name="Group 128" transform="translate(676.261 62.5)">
      <path id="Path_95" data-name="Path 95" d="M705.943,85.37h-5.686V67.645a4.37,4.37,0,0,0-1.286-3.1L684.438,50.01,669.912,64.541a4.371,4.371,0,0,0-1.286,3.1V85.37h-5.691a2.007,2.007,0,0,0-2.007,2.007v30.269a5.92,5.92,0,0,0,5.781-5.917,5.922,5.922,0,0,0,11.844,0,5.919,5.919,0,0,0,11.838,0,5.922,5.922,0,0,0,11.844,0,5.919,5.919,0,0,0,5.722,5.917V87.377a2.008,2.008,0,0,0-2.013-2.007Z" transform="translate(-660.927 -50.01)" fill="none"/>
    </g>
    <g id="Group_129" data-name="Group 129" transform="translate(693.885 116.115)">
      <path id="Path_96" data-name="Path 96" d="M670.38,74.747h.055c.135,0,.266,0,.4-.015s.245-.025.37-.04l.085-.015a5.916,5.916,0,0,0,5-5.847v-5.3a2.817,2.817,0,0,0-2.823-2.808H667.28a2.818,2.818,0,0,0-2.828,2.808v5.386a5.937,5.937,0,0,0,5.928,5.831Z" transform="translate(-664.448 -60.721)" fill="none"/>
    </g>
    <g id="Group_130" data-name="Group 130" transform="translate(682.728 104.252)">
      <rect id="Rectangle_40" data-name="Rectangle 40" width="7.212" height="6.72" rx="0.2" fill="#0c1117"/>
    </g>
    <g id="Group_131" data-name="Group 131" transform="translate(709.608 104.252)">
      <rect id="Rectangle_41" data-name="Rectangle 41" width="7.212" height="6.72" rx="0.2" fill="#0c1117"/>
    </g>
    <g id="Group_132" data-name="Group 132" transform="translate(694.451 78.73)">
      <rect id="Rectangle_42" data-name="Rectangle 42" width="10.647" height="11.992" fill="#0c1117"/>
    </g>
    <g id="Group_133" data-name="Group 133" transform="translate(658.3 124.219)">
      <path id="Path_97" data-name="Path 97" d="M657.4,62.34a5.919,5.919,0,0,0,11.838,0,5.922,5.922,0,1,0,11.843,0,5.922,5.922,0,1,0,11.844,0,5.919,5.919,0,1,0,11.838,0,5.922,5.922,0,1,0,11.844,0,5.919,5.919,0,0,0,11.838,0,5.922,5.922,0,1,0,11.843,0,41.474,41.474,0,1,1-82.948,0" transform="translate(-657.339 -62.34)" fill="none"/>
    </g>
    <path id="Path_98" data-name="Path 98" d="M675.059,125.055V99.867a3.215,3.215,0,0,1,3.209-3.209h4.49V81.211L678.879,85.1a1.2,1.2,0,0,1-.851.35,1.181,1.181,0,0,1-.846-.35,1.2,1.2,0,0,1,0-1.7l7.784-7.789h0L698.576,62V52.2a2.921,2.921,0,1,0-5.842,0v3.734a1.2,1.2,0,0,1-2.4,0V52.208a5.318,5.318,0,1,1,10.637,0V62l13.6,13.6h.005l7.784,7.789a1.2,1.2,0,1,1-1.7,1.7l-3.879-3.884V96.658h4.485a3.212,3.212,0,0,1,3.208,3.209V125.05a1.2,1.2,0,1,1-2.4,0V99.867a.814.814,0,0,0-.811-.811h-23a1.2,1.2,0,1,1,0-2.4h16.113V80.134a3.167,3.167,0,0,0-.931-2.258L699.772,64.2l-13.68,13.68a3.167,3.167,0,0,0-.931,2.258v16.52h5.2a1.2,1.2,0,1,1,0,2.4H678.268a.81.81,0,0,0-.806.811v25.188a1.2,1.2,0,1,1-2.4,0Zm19.677-26a1.2,1.2,0,0,0,0-2.4h-.851a1.2,1.2,0,1,0,0,2.4Zm-.285-7.133h-2.272a1.2,1.2,0,1,1,0-2.4h1.071V79.929h-1.071a1.2,1.2,0,1,1,0-2.4h15.192a1.2,1.2,0,1,1,0,2.4H706.3V89.52h1.071a1.2,1.2,0,0,1,0,2.4h-12.92ZM703.9,79.929h-2.923V89.52H703.9Zm-8.244,9.591h2.923V79.929h-2.923Zm46.792,34.7a42.673,42.673,0,1,1-85.346,0,1.2,1.2,0,0,1,1.2-1.2h.06a1.205,1.205,0,0,1,1.2,1.2,4.72,4.72,0,1,0,9.441,0,1.2,1.2,0,0,1,2.4,0,4.72,4.72,0,1,0,9.44,0,1.2,1.2,0,0,1,2.4,0,4.721,4.721,0,0,0,9.441.015v-5.311a4.027,4.027,0,0,1,4.029-4.015H702.9a4.027,4.027,0,0,1,4.03,4.015V124.3a4.718,4.718,0,1,0,9.435-.075,1.2,1.2,0,1,1,2.4,0,4.72,4.72,0,1,0,9.441,0,1.2,1.2,0,0,1,2.4,0,4.721,4.721,0,0,0,9.441,0,1.2,1.2,0,0,1,2.4,0Zm-30.8,7.123a7.08,7.08,0,0,1-2.858-.606,145.7,145.7,0,0,1-2.528,24.467,33.085,33.085,0,0,1-2.828,8.76c9.416-2.733,17.12-15.833,18.816-32.737a7.1,7.1,0,0,1-4.68-3.053,7.135,7.135,0,0,1-5.925,3.168Zm-11.873,33.152c.025,0,2.1-.115,4.14-9.786a147.469,147.469,0,0,0,2.523-25.649,6.628,6.628,0,0,1-.7-.876,7.09,7.09,0,0,1-4.825,3.073l-.11.015c-.14.02-.29.035-.44.045h-.075l-.11.005c-.1.005-.19.015-.29.015h-.065q-.218,0-.435-.015l-.13-.01-.23-.025-.26-.03-.03-.005a7.128,7.128,0,0,1-4.845-3.083,7.789,7.789,0,0,1-.766.951,147.081,147.081,0,0,0,2.523,25.614c2.025,9.645,4.1,9.76,4.122,9.76ZM695.09,124.31a4.749,4.749,0,0,0,4.735,4.625h.035c.115,0,.215-.005.32-.015s.175-.015.26-.025l.16-.025.3-.06.18-.05.21-.06c.1-.035.2-.07.29-.1l.09-.04a4.728,4.728,0,0,0,2.473-2.468l.025-.065c.045-.1.085-.21.12-.315l.045-.14.06-.24c.02-.075.035-.145.05-.22l.025-.145a5.123,5.123,0,0,0,.06-.741v-5.3a1.618,1.618,0,0,0-1.622-1.607h-6.187a1.619,1.619,0,0,0-1.627,1.607Zm-17.79,6.927c1.7,16.9,9.4,29.994,18.816,32.727a32.974,32.974,0,0,1-2.823-8.73,145.616,145.616,0,0,1-2.533-24.473,7.094,7.094,0,0,1-8.72-2.588,7.128,7.128,0,0,1-4.74,3.064Zm12.054,31.886a28.428,28.428,0,0,1-6.382-7c-4.3-6.482-7.153-15.292-8.084-24.888a7.161,7.161,0,0,1-4.69-3.058,7.108,7.108,0,0,1-10.312,1.647,40.392,40.392,0,0,0,29.469,33.3Zm50.3-33.252a7.107,7.107,0,0,1-10.246-1.7,7.146,7.146,0,0,1-4.745,3.068c-.931,9.591-3.789,18.4-8.084,24.878a28.428,28.428,0,0,1-6.382,7,40.379,40.379,0,0,0,29.455-33.247Zm-48.509-24.417v4.32h.831a1.2,1.2,0,1,1,0,2.4H680.7a1.2,1.2,0,1,1,0-2.4h.831v-4.32H680.7a1.2,1.2,0,1,1,0-2.4h11.278a1.2,1.2,0,0,1,0,2.4Zm-2.4,0h-4.81v4.32h4.81Zm29.283,0v4.32h.831a1.2,1.2,0,0,1,0,2.4H707.576a1.2,1.2,0,1,1,0-2.4h.831v-4.32h-.831a1.2,1.2,0,1,1,0-2.4h11.278a1.2,1.2,0,1,1,0,2.4Zm-2.4,0h-4.81v4.32h4.81Z" fill="#fd363b"/>
  </g>
</svg>
