<svg xmlns="http://www.w3.org/2000/svg" width="119.996" height="120.003" viewBox="0 0 119.996 120.003">
  <g id="Group_79" data-name="Group 79" transform="translate(-173.626 -49.973)">
    <g id="Group_66" data-name="Group 66" transform="translate(202.124 140.167)">
      <path id="Path_42" data-name="Path 42" d="M180.969,67.993h24.777a1.65,1.65,0,0,1,1.652,1.652V96.6h-28.08V69.645a1.65,1.65,0,0,1,1.651-1.652Z" transform="translate(-179.317 -67.993)" fill="none"/>
    </g>
    <g id="Group_67" data-name="Group 67" transform="translate(174.824 95.884)">
      <path id="Path_43" data-name="Path 43" d="M179.834,62.134V66.9a4.852,4.852,0,0,0,3.6,4.685l33.016,8.774a11.2,11.2,0,0,1,8.319,10.822v12.248H205.162V96.146a6.115,6.115,0,0,0-3.884-5.7l-21.013-8.239a10.091,10.091,0,0,1-6.4-9.4V62.134a2.989,2.989,0,0,1,2.983-2.988h0A2.99,2.99,0,0,1,179.834,62.134Z" transform="translate(-173.863 -59.146)" fill="none"/>
    </g>
    <g id="Group_68" data-name="Group 68" transform="translate(237.032 140.167)">
      <path id="Path_44" data-name="Path 44" d="M212.725,67.993H187.948a1.654,1.654,0,0,0-1.657,1.652V96.6h28.085V69.645A1.653,1.653,0,0,0,212.725,67.993Z" transform="translate(-186.291 -67.993)" fill="none"/>
    </g>
    <g id="Group_69" data-name="Group 69" transform="translate(241.507 95.889)">
      <path id="Path_45" data-name="Path 45" d="M232.124,62.13V66.9a4.852,4.852,0,0,1-3.6,4.685L195.5,80.355a11.2,11.2,0,0,0-8.319,10.822v10.6a1.653,1.653,0,0,0,1.652,1.652H206.8V96.142a6.115,6.115,0,0,1,3.884-5.7L231.7,82.2a10.091,10.091,0,0,0,6.4-9.4V62.13a2.984,2.984,0,0,0-2.983-2.983h0a2.985,2.985,0,0,0-2.99,2.983Z" transform="translate(-187.185 -59.147)" fill="none"/>
    </g>
    <g id="Group_70" data-name="Group 70" transform="translate(193.54 66.537)">
      <path id="Path_46" data-name="Path 46" d="M257.759,77.2V65.606a8.375,8.375,0,0,0-2.713-6.177l-6.692-6.147H187.012l-6.7,6.147a8.393,8.393,0,0,0-2.713,6.177V77.2a3.92,3.92,0,0,0,3.924,3.919H253.84a3.916,3.916,0,0,0,3.919-3.919Z" transform="translate(-177.602 -53.283)" fill="none"/>
    </g>
    <g id="Group_71" data-name="Group 71" transform="translate(224.484 76.933)">
      <path id="Path_47" data-name="Path 47" d="M198.9,68.159H186.937a2.171,2.171,0,0,1-2.157-1.922l-.981-8.454a2.176,2.176,0,0,1,2.162-2.423h13.92a2.17,2.17,0,0,1,2.157,2.423l-.976,8.454a2.171,2.171,0,0,1-2.162,1.922Z" transform="translate(-183.784 -55.36)" fill="none"/>
    </g>
    <g id="Group_72" data-name="Group 72" transform="translate(198.7 76.933)">
      <path id="Path_48" data-name="Path 48" d="M178.633,55.36v3.669a1.948,1.948,0,0,0,1.952,1.952h6.9a4.668,4.668,0,0,0,3.384-1.452l3.959-4.17Z" transform="translate(-178.633 -55.36)" fill="#0c1117"/>
    </g>
    <g id="Group_73" data-name="Group 73" transform="translate(252.343 76.933)">
      <path id="Path_49" data-name="Path 49" d="M205.547,55.36v3.669a1.948,1.948,0,0,1-1.952,1.952h-6.9a4.668,4.668,0,0,1-3.384-1.452l-3.959-4.17Z" transform="translate(-189.35 -55.36)" fill="#0c1117"/>
    </g>
    <g id="Group_74" data-name="Group 74" transform="translate(193.54 90.453)">
      <path id="Path_50" data-name="Path 50" d="M177.6,58.061V69.023a2.8,2.8,0,0,0,2.8,2.8h9.761a2.8,2.8,0,0,0,2.8-2.8V61.98H181.526a3.92,3.92,0,0,1-3.926-3.919Z" transform="translate(-177.602 -58.061)" fill="none"/>
    </g>
    <g id="Group_75" data-name="Group 75" transform="translate(258.34 90.453)">
      <path id="Path_51" data-name="Path 51" d="M201.985,61.98H190.548v7.043a2.8,2.8,0,0,0,2.8,2.8h9.761a2.8,2.8,0,0,0,2.8-2.8V58.061a3.916,3.916,0,0,1-3.924,3.919Z" transform="translate(-190.548 -58.061)" fill="none"/>
    </g>
    <g id="Group_76" data-name="Group 76" transform="translate(190.7 60.247)">
      <rect id="Rectangle_28" data-name="Rectangle 28" width="8.48" height="4.775" rx="0.477" fill="none"/>
    </g>
    <g id="Group_77" data-name="Group 77" transform="translate(268.061 60.247)">
      <rect id="Rectangle_29" data-name="Rectangle 29" width="8.48" height="4.775" rx="0.477" fill="none"/>
    </g>
    <g id="Group_78" data-name="Group 78" transform="translate(202.95 51.175)">
      <path id="Path_52" data-name="Path 52" d="M240.823,65.576l-4.84-11.067a7.176,7.176,0,0,0-6.572-4.3H190.894a7.171,7.171,0,0,0-6.572,4.295l-4.84,11.067Z" transform="translate(-179.482 -50.214)" fill="none"/>
    </g>
    <path id="Path_53" data-name="Path 53" d="M228.552,138.965h-1.617V127.918a12.41,12.41,0,0,0-9.21-11.978L205.6,112.717l-13.42-3.569h-.005l-7.468-1.987A3.648,3.648,0,0,1,182,103.637V98.872a4.187,4.187,0,1,0-8.374,0v10.682a11.221,11.221,0,0,0,7.168,10.511L201.8,128.3a4.894,4.894,0,0,1,3.123,4.58v6.082h-1.146a2.858,2.858,0,0,0-2.853,2.853v26.954a1.2,1.2,0,0,0,2.4,0V147.054h25.688v21.719a1.2,1.2,0,1,0,2.4,0V141.818a2.855,2.855,0,0,0-2.86-2.853Zm-25.878-12.894-21.008-8.239a8.844,8.844,0,0,1-5.646-8.279V98.872a1.787,1.787,0,0,1,3.574,0v4.765a6.063,6.063,0,0,0,4.495,5.846l3.714.986a4.358,4.358,0,0,0,1.667,6.938L206.228,124a1.131,1.131,0,0,0,.441.085,1.2,1.2,0,0,0,.435-2.317l-16.758-6.592a1.952,1.952,0,0,1,1.216-3.7l14.8,3.929h0l10.752,2.858a10.006,10.006,0,0,1,7.423,9.66V138.97H207.325v-6.082a7.275,7.275,0,0,0-4.651-6.817Zm.646,18.58v-2.833a.453.453,0,0,1,.456-.45h24.777a.453.453,0,0,1,.456.45v2.833Zm86.113-49.964a4.19,4.19,0,0,0-4.19,4.185v4.765a3.648,3.648,0,0,1-2.713,3.524l-20.347,5.411-1.917.511h0l-10.752,2.858a12.41,12.41,0,0,0-9.21,11.978v10.6a2.645,2.645,0,0,0,.04.45h-1.657a2.855,2.855,0,0,0-2.853,2.853v26.954a1.2,1.2,0,0,0,2.4,0V147.054h25.688v5.156a1.2,1.2,0,0,0,2.4,0V141.818a2.858,2.858,0,0,0-2.853-2.853h-1.146v-6.082a4.9,4.9,0,0,1,3.118-4.58l21.013-8.239a11.221,11.221,0,0,0,7.168-10.511V98.872a4.189,4.189,0,0,0-4.189-4.185ZM263.92,141.818v2.833H238.233v-2.833a.453.453,0,0,1,.455-.45h24.777a.453.453,0,0,1,.456.45Zm27.3-32.265a8.845,8.845,0,0,1-5.646,8.279l-21.013,8.239a7.278,7.278,0,0,0-4.645,6.812v6.082H243.158a.449.449,0,0,1-.451-.45v-10.6a10.006,10.006,0,0,1,7.423-9.66l12.669-3.369,12.874-3.419a1.932,1.932,0,0,1,1.692.335,1.954,1.954,0,0,1-.47,3.369l-16.763,6.592a1.2,1.2,0,0,0,.44,2.317,1.131,1.131,0,0,0,.441-.085l16.758-6.592a4.357,4.357,0,0,0,1.667-6.937l3.709-.986a6.061,6.061,0,0,0,4.5-5.846V98.872a1.787,1.787,0,1,1,3.574,0Zm-24.9,46.5v1.437a1.2,1.2,0,1,1-2.4,0v-1.437a1.2,1.2,0,0,1,2.4,0Zm0,5.436v7.283a1.2,1.2,0,1,1-2.4,0V161.49a1.2,1.2,0,0,1,2.4,0ZM213.7,66.537a1.2,1.2,0,0,1,1.2-1.2h1.442a1.2,1.2,0,0,1,0,2.4H214.9a1.2,1.2,0,0,1-1.2-1.2Zm-20.612-.315h3.7a3.58,3.58,0,0,0,2.077-.666l2.067,1.2-5.5,5.045a9.647,9.647,0,0,0-2.838,4.85l-.015.065a9.576,9.576,0,0,0-.245,2.147v11.59h0v10.962a4,4,0,0,0,4,4H206.1a4.007,4.007,0,0,0,4-4V95.573h47.036v5.841a4.008,4.008,0,0,0,4,4H270.9a4,4,0,0,0,4-4V90.453h0V78.86a9.61,9.61,0,0,0-.245-2.147l-.015-.065A9.647,9.647,0,0,0,271.8,71.8l-5.5-5.045,2.067-1.2a3.58,3.58,0,0,0,2.077.666h3.7a3.587,3.587,0,0,0,0-7.173h-3.7a3.591,3.591,0,0,0-3.589,3.584,3.661,3.661,0,0,0,.13.946l-2.137,1.241-4.3-9.831a8.371,8.371,0,0,0-7.668-5.015H214.362a8.371,8.371,0,0,0-7.668,5.014l-4.3,9.832-2.142-1.241a3.459,3.459,0,0,0,.135-.946,3.591,3.591,0,0,0-3.589-3.584h-3.7a3.587,3.587,0,1,0,0,7.173Zm32.6,12.994a.944.944,0,0,1,.24-.761.975.975,0,0,1,.726-.325h13.92a.975.975,0,0,1,.726.325.943.943,0,0,1,.24.761l-.115.991H225.81Zm.39,3.394h15.071l-.21,1.8H226.29Zm.586,5.065-.1-.871h14.1l-.1.871a.97.97,0,0,1-.966.861H227.636a.97.97,0,0,1-.966-.861Zm.966,3.259h44.819a2.739,2.739,0,0,1-1.617,2.027,2.77,2.77,0,0,1-1.061.215H197.464a2.662,2.662,0,0,1-1.291-.33h-.005a2.368,2.368,0,0,1-.516-.37,2.7,2.7,0,0,1-.866-1.542ZM207.7,101.415a1.6,1.6,0,0,1-1.6,1.6h-9.761a1.6,1.6,0,0,1-1.6-1.6V94.793a2.452,2.452,0,0,0,.25.14l.04.025c.13.07.26.135.4.2l.11.045c.11.04.22.085.335.12l.1.035c.145.04.285.08.436.11l.09.015c.12.025.245.045.37.06l.125.01c.155.015.31.025.465.025H207.7Zm64.8,0a1.6,1.6,0,0,1-1.6,1.6h-9.761a1.6,1.6,0,0,1-1.6-1.6V95.573h10.236c.16,0,.315-.01.471-.025l.125-.01c.125-.015.245-.035.37-.06l.09-.015c.145-.03.29-.07.435-.11l.1-.035c.115-.035.225-.08.335-.12l.11-.045c.135-.06.265-.125.4-.2l.04-.025c.085-.045.17-.09.25-.14Zm-2.052-39.968h3.7a1.189,1.189,0,0,1,0,2.378h-3.7a1.189,1.189,0,0,1,0-2.378Zm-61.557-5.5a5.97,5.97,0,0,1,5.471-3.574h38.517a5.97,5.97,0,0,1,5.471,3.574l4.1,9.385h-41.8a1.2,1.2,0,0,0,0,2.4h43.162l6.352,5.831a7.149,7.149,0,0,1,1.607,2.167H248.139a1.2,1.2,0,1,0,0,2.4h3.689l3.6,3.8a5.889,5.889,0,0,0,4.255,1.827h6.9a3.159,3.159,0,0,0,3.153-3.153V78.129h2.718a7.073,7.073,0,0,1,.04.731v9.675H242.833a3.286,3.286,0,0,0,.12-.586l.981-8.459a3.374,3.374,0,0,0-3.354-3.759H226.66a3.374,3.374,0,0,0-3.354,3.759l.981,8.459a3.283,3.283,0,0,0,.12.586H194.741V78.86a7.064,7.064,0,0,1,.04-.731H197.5V80.6a3.155,3.155,0,0,0,3.148,3.153h6.907a5.889,5.889,0,0,0,4.255-1.827l3.6-3.8h3.69a1.2,1.2,0,0,0,0-2.4H195.462a7.068,7.068,0,0,1,1.607-2.162l6.352-5.836h7.8a1.2,1.2,0,0,0,0-2.4h-6.432Zm58.448,22.179V80.6a.75.75,0,0,1-.751.751h-6.9a3.481,3.481,0,0,1-2.518-1.081l-2.032-2.142Zm-67.438,0h12.2l-2.032,2.142a3.481,3.481,0,0,1-2.518,1.081h-6.907a.749.749,0,0,1-.746-.751Zm-6.812-16.683h3.7a1.189,1.189,0,0,1,0,2.378h-3.7a1.189,1.189,0,0,1,0-2.378Z" fill="#fd363b"/>
  </g>
</svg>
