<svg xmlns="http://www.w3.org/2000/svg" xmlns:xlink="http://www.w3.org/1999/xlink" width="158" height="158" viewBox="0 0 158 158">

  <g id="household-insurance" transform="translate(-666 -710)">
    <g transform="matrix(1, 0, 0, 1, 666, 710)" filter="url(#Rectangle_33)">
      <rect id="Rectangle_33-2" data-name="Rectangle 33" width="140" height="140" transform="translate(9 6)" fill="#fff"/>
    </g>
    <g id="Group_106" data-name="Group 106" transform="translate(444.745 676.026)">
      <g id="Group_95" data-name="Group 95" transform="translate(253.876 51.173)">
        <path id="Path_67" data-name="Path 67" d="M335.737,73.814l-46.38-23.6-46.38,23.6Z" transform="translate(-242.976 -50.214)" fill="none"/>
      </g>
      <g id="Group_96" data-name="Group 96" transform="translate(268.757 157.223)">
        <path id="Path_68" data-name="Path 68" d="M247.6,71.4h24.783a1.65,1.65,0,0,1,1.652,1.652v9.9H245.949v-9.9A1.65,1.65,0,0,1,247.6,71.4Z" transform="translate(-245.949 -71.4)" fill="none"/>
      </g>
      <g id="Group_97" data-name="Group 97" transform="translate(241.456 112.938)">
        <path id="Path_69" data-name="Path 69" d="M246.467,65.541V70.3a4.854,4.854,0,0,0,3.6,4.69l33.021,8.775A11.191,11.191,0,0,1,291.4,94.582v12.254H271.8V99.55a6.126,6.126,0,0,0-3.883-5.7L246.9,85.614a10.084,10.084,0,0,1-6.407-9.391V65.541a2.986,2.986,0,0,1,2.988-2.988h0a2.985,2.985,0,0,1,2.986,2.988Z" transform="translate(-240.495 -62.553)" fill="none"/>
      </g>
      <g id="Group_98" data-name="Group 98" transform="translate(303.671 157.223)">
        <path id="Path_70" data-name="Path 70" d="M279.359,71.4H254.576a1.65,1.65,0,0,0-1.652,1.652v9.9h28.087v-9.9a1.65,1.65,0,0,0-1.652-1.652Z" transform="translate(-252.924 -71.4)" fill="none"/>
      </g>
      <g id="Group_99" data-name="Group 99" transform="translate(308.141 112.938)">
        <path id="Path_71" data-name="Path 71" d="M298.758,65.541V70.3a4.848,4.848,0,0,1-3.6,4.69l-33.017,8.775a11.19,11.19,0,0,0-8.319,10.817v10.6a1.656,1.656,0,0,0,1.657,1.657h17.955V99.55a6.126,6.126,0,0,1,3.883-5.7l21.015-8.239a10.084,10.084,0,0,0,6.407-9.391V65.541a2.987,2.987,0,0,0-2.988-2.988h0a2.986,2.986,0,0,0-2.993,2.988Z" transform="translate(-253.817 -62.553)" fill="none"/>
      </g>
      <g id="Group_100" data-name="Group 100" transform="translate(253.875 93.236)">
        <path id="Path_72" data-name="Path 72" d="M282.13,69.584h-1.607V62.551a3.931,3.931,0,0,0-3.929-3.934H250.735a3.931,3.931,0,0,0-3.929,3.934v7.033H245.2a2.224,2.224,0,0,0-2.223,2.223V83.445h41.377V71.807A2.224,2.224,0,0,0,282.13,69.584Z" transform="translate(-242.976 -58.617)" fill="none"/>
      </g>
      <g id="Group_101" data-name="Group 101" transform="translate(298.791 85.462)">
        <path id="Path_73" data-name="Path 73" d="M261.38,67.471h-9.431l1.061-9.406a1.119,1.119,0,0,1,1.116-1h5.081a1.126,1.126,0,0,1,1.116,1Z" transform="translate(-251.949 -57.064)" fill="#0c1117"/>
      </g>
      <g id="Group_102" data-name="Group 102" transform="translate(316.195 104.543)">
        <path id="Path_74" data-name="Path 74" d="M255.426,63.9a1.536,1.536,0,0,0,1.532,1.537h22.621A1.536,1.536,0,0,0,281.11,63.9V60.876H255.426Z" transform="translate(-255.426 -60.876)" fill="none"/>
      </g>
      <g id="Group_103" data-name="Group 103" transform="translate(316.195 88.671)">
        <path id="Path_75" data-name="Path 75" d="M279.578,57.705h-22.62a1.533,1.533,0,0,0-1.532,1.537V73.578H281.11V59.242a1.533,1.533,0,0,0-1.532-1.537Z" transform="translate(-255.426 -57.705)" fill="none"/>
      </g>
      <g id="Group_104" data-name="Group 104" transform="translate(311.435 109.103)">
        <path id="Path_76" data-name="Path 76" d="M255.877,61.787h32.4a1.4,1.4,0,0,1,1.4,1.4V70.75h-35.2V63.184A1.4,1.4,0,0,1,255.877,61.787Z" transform="translate(-254.475 -61.787)" fill="none"/>
      </g>
      <g id="Group_105" data-name="Group 105" transform="translate(295.637 59.734)">
        <circle id="Ellipse_7" data-name="Ellipse 7" cx="4.62" cy="4.62" r="4.62" transform="translate(0 0)" fill="#0c1117"/>
      </g>
      <path id="Path_77" data-name="Path 77" d="M295.192,156.021H293.57V144.969a12.41,12.41,0,0,0-9.21-11.979l-12.124-3.219-13.42-3.569h0l-7.473-1.987a3.658,3.658,0,0,1-2.713-3.529v-4.76a4.187,4.187,0,1,0-8.374,0v10.682a11.22,11.22,0,0,0,7.168,10.507l21.014,8.244a4.883,4.883,0,0,1,3.124,4.575v6.087h-1.151a2.855,2.855,0,0,0-2.853,2.853v9.9a1.2,1.2,0,1,0,2.4,0v-9.9a.453.453,0,0,1,.451-.456h24.783a.453.453,0,0,1,.451.456v9.9a1.2,1.2,0,0,0,2.4,0v-9.9A2.855,2.855,0,0,0,295.192,156.021Zm-21.234,0v-6.087a7.276,7.276,0,0,0-4.645-6.813L248.3,134.882a8.834,8.834,0,0,1-5.641-8.274V115.926a1.787,1.787,0,1,1,3.574,0v4.76a6.048,6.048,0,0,0,4.5,5.847l3.714.991a4.347,4.347,0,0,0,1.662,6.933l16.759,6.6a1.244,1.244,0,0,0,.441.08,1.2,1.2,0,0,0,.441-2.313l-16.759-6.6a1.953,1.953,0,0,1,1.216-3.7L273,132.458h0l10.752,2.858a10.005,10.005,0,0,1,7.428,9.656v11.052Zm82.112-44.285a4.194,4.194,0,0,0-4.185,4.19v4.76a3.658,3.658,0,0,1-2.713,3.529l-33.017,8.775a12.4,12.4,0,0,0-9.21,11.979v10.6a2.758,2.758,0,0,0,.04.456h-1.662a2.855,2.855,0,0,0-2.853,2.853v9.9a1.2,1.2,0,1,0,2.4,0v-9.9a.453.453,0,0,1,.451-.456H330.1a.456.456,0,0,1,.451.456v9.9a1.2,1.2,0,0,0,2.4,0v-9.9a2.851,2.851,0,0,0-2.848-2.853h-1.151v-6.087a4.883,4.883,0,0,1,3.124-4.575l21.014-8.244a11.223,11.223,0,0,0,7.163-10.507V115.926a4.193,4.193,0,0,0-4.187-4.19Zm1.787,14.872a8.841,8.841,0,0,1-5.641,8.274l-21.016,8.24a7.276,7.276,0,0,0-4.645,6.813v6.087H309.8a.457.457,0,0,1-.455-.456v-10.6a10,10,0,0,1,7.428-9.656l10.747-2.858h0l14.8-3.934a1.953,1.953,0,0,1,1.216,3.7l-16.759,6.6a1.2,1.2,0,0,0,.44,2.313,1.242,1.242,0,0,0,.44-.08l16.754-6.6a4.346,4.346,0,0,0,1.667-6.933l3.714-.991a6.048,6.048,0,0,0,4.5-5.847v-4.76a1.787,1.787,0,1,1,3.574,0ZM253.875,119.26h41.377a1.2,1.2,0,0,0,1.2-1.2V106.425A3.429,3.429,0,0,0,293.029,103h-.406V97.17a5.135,5.135,0,0,0-5.131-5.131H261.634a5.135,5.135,0,0,0-5.134,5.13V103h-.4a3.429,3.429,0,0,0-3.424,3.424v11.638a1.2,1.2,0,0,0,1.2,1.2Zm8.855-9.926H286.4v7.528H262.73Zm31.32-2.908v10.437h-5.256V106.425a1.028,1.028,0,0,1,1.026-1.026h3.209a1.026,1.026,0,0,1,1.022,1.026ZM258.906,97.17a2.732,2.732,0,0,1,2.728-2.733h25.859a2.737,2.737,0,0,1,2.733,2.733V103h-.406a3.429,3.429,0,0,0-3.424,3.424v.506H262.73v-.506A3.429,3.429,0,0,0,259.306,103h-.4Zm-3.829,9.255A1.026,1.026,0,0,1,256.1,105.4h3.209a1.028,1.028,0,0,1,1.026,1.026v10.437h-5.256Zm10.9-5.947a1.2,1.2,0,0,1,1.2-1.2h.526a1.2,1.2,0,1,1,0,2.4h-.526a1.2,1.2,0,0,1-1.2-1.2Zm14.256,0a1.2,1.2,0,0,1,1.2-1.2h.526a1.2,1.2,0,1,1,0,2.4h-.526a1.2,1.2,0,0,1-1.2-1.2Zm26.835,18.781a1.2,1.2,0,1,0,0-2.4H304.71V97.07h3.514a1.2,1.2,0,0,0,1.191-1.331l-1.056-9.411a2.324,2.324,0,0,0-2.308-2.067H300.97a2.329,2.329,0,0,0-2.313,2.067l-1.057,9.41a1.2,1.2,0,0,0,.3.931,1.188,1.188,0,0,0,.891.4H302.3v19.792h-2.358a1.2,1.2,0,1,0,0,2.4Zm-6.032-32.6h4.945l.9,8.009h-6.743Zm9.2,23.837v7.564a1.2,1.2,0,0,0,1.2,1.2h35.2a1.2,1.2,0,0,0,1.2-1.2V110.5a2.6,2.6,0,0,0-2.6-2.6h-2.177c.01-.11.02-.22.02-.335V90.207a2.738,2.738,0,0,0-2.733-2.738h-22.62A2.738,2.738,0,0,0,315,90.207v17.36c0,.115.01.225.02.335h-2.177a2.6,2.6,0,0,0-2.6,2.6Zm35.2,0v6.362h-32.8V110.5a.2.2,0,0,1,.2-.2h32.4a.2.2,0,0,1,.2.2ZM317.392,90.207a.336.336,0,0,1,.335-.335h22.62a.335.335,0,0,1,.335.335v13.135h-23.29Zm0,17.36V105.74h23.291v1.827a.335.335,0,0,1-.335.335h-22.62A.336.336,0,0,1,317.392,107.567ZM252.709,75.055a1.2,1.2,0,0,1,.626-1.352l46.377-23.6a1.23,1.23,0,0,1,1.091,0L347.18,73.7a1.2,1.2,0,0,1-.541,2.268h-6.262v7.523a1.2,1.2,0,1,1-2.4,0v-7.52H284.815a1.2,1.2,0,1,1,0-2.4h56.819L300.258,52.52,258.881,73.574h16.734a1.2,1.2,0,1,1,0,2.4h-13.08V83.5a1.2,1.2,0,1,1-2.4,0V75.971h-6.257a1.2,1.2,0,0,1-1.169-.916ZM280.5,73.574a1.2,1.2,0,1,1,0,2.4h-.8a1.2,1.2,0,1,1,0-2.4Zm25.584-9.22a5.822,5.822,0,1,0-5.822,5.822,5.822,5.822,0,0,0,5.822-5.822Zm-9.24,0a1.573,1.573,0,1,1-.005,0Z" fill="#fd363b"/>
    </g>
  </g>
</svg>
