<svg xmlns="http://www.w3.org/2000/svg" width="98.788" height="120.003" viewBox="0 0 98.788 120.003">
  <g id="Group_139" data-name="Group 139" transform="translate(-717.911 -47.884)">
    <g id="Group_135" data-name="Group 135" transform="translate(755.903 118.047)">
      <path id="Path_99" data-name="Path 99" d="M738.485,61.9h-3.2a.96.96,0,0,0-.961.956V73.692a1.854,1.854,0,0,1-2.093,1.837,1.893,1.893,0,0,1-1.607-1.9V72.306a1.613,1.613,0,0,0-1.637-1.612l-1.9.03a1.611,1.611,0,0,0-1.582,1.612v1.357a6.981,6.981,0,0,0,7.183,6.968,7.067,7.067,0,0,0,6.757-7.118V62.86a.959.959,0,0,0-.96-.96Z" transform="translate(-725.5 -61.904)" fill="#0c1117"/>
    </g>
    <g id="Group_136" data-name="Group 136" transform="translate(727.436 55.532)">
      <path id="Path_100" data-name="Path 100" d="M799.508,89.29a5.694,5.694,0,1,0-11.388,0,5.691,5.691,0,1,0-11.383,0,5.694,5.694,0,0,0-11.388,0,5.691,5.691,0,0,0-11.383,0,5.691,5.691,0,1,0-11.383,0,5.694,5.694,0,0,0-11.388,0,5.691,5.691,0,1,0-11.383,0,39.875,39.875,0,1,1,79.75,0" transform="translate(-719.813 -49.415)" fill="none"/>
    </g>
    <g id="Group_137" data-name="Group 137" transform="translate(719.112 141.493)">
      <path id="Path_101" data-name="Path 101" d="M718.15,91.781h29.463a1.565,1.565,0,0,0,1.567-1.562V68.15a1.565,1.565,0,0,0-1.567-1.562H718.15" transform="translate(-718.15 -66.588)" fill="none"/>
    </g>
    <g id="Group_138" data-name="Group 138" transform="translate(750.141 134.826)">
      <path id="Path_102" data-name="Path 102" d="M785.618,65.256a4.109,4.109,0,0,0-1.792.415L761.065,76.759a7.608,7.608,0,0,1-3.349.776h-1.822a3.914,3.914,0,0,0-3.374-1.927H724.349v18.2H760a7.2,7.2,0,0,0,4.6-1.661L788.236,72.5a4.1,4.1,0,0,0-2.618-7.244Z" transform="translate(-724.349 -65.256)" fill="none"/>
    </g>
    <path id="Path_103" data-name="Path 103" d="M736.961,69.512a1.2,1.2,0,0,1-.08-1.692,41.074,41.074,0,0,1,6.227-5.6,1.2,1.2,0,1,1,1.412,1.937,38.828,38.828,0,0,0-5.862,5.276,1.208,1.208,0,0,1-.891.39,1.192,1.192,0,0,1-.806-.311Zm-3.889,5.411a1.169,1.169,0,0,0,.645.19,1.2,1.2,0,0,0,1.011-.551c.33-.516.676-1.031,1.031-1.527a1.2,1.2,0,0,0-1.957-1.392c-.376.526-.746,1.071-1.1,1.622a1.2,1.2,0,0,0,.37,1.658Zm-6.838,20.483a41.148,41.148,0,0,1,4.734-19.158,1.2,1.2,0,1,1,2.124,1.117,38.6,38.6,0,0,0-4.055,12.5,6.866,6.866,0,0,1,8.855.571,48.464,48.464,0,0,1,8.339-23.922,33.13,33.13,0,0,1,6.578-6.963,38.031,38.031,0,0,0-4.064,1.917,1.2,1.2,0,1,1-1.151-2.1,41.079,41.079,0,0,1,18.516-5.016V49.084a1.2,1.2,0,0,1,2.4,0V54.35a41.121,41.121,0,0,1,39.875,41.056,1.2,1.2,0,0,1-1.2,1.2l-.03,0-.025,0a1.2,1.2,0,0,1-1.2-1.2,4.493,4.493,0,1,0-8.986,0,1.2,1.2,0,0,1-1.2,1.2h0a1.2,1.2,0,0,1-1.2-1.2v-.05a4.49,4.49,0,0,0-8.98.05,1.2,1.2,0,0,1-1.2,1.2l-.02-.005-.025,0a1.2,1.2,0,0,1-1.2-1.2v-.6a4.49,4.49,0,0,0-8.94.6,1.2,1.2,0,0,1-1.2,1.2l-.04,0-.04,0a1.205,1.205,0,0,1-1.2-1.2V94.55a4.5,4.5,0,0,0-3.209-3.469v25.764h.406A2.164,2.164,0,0,1,771.045,119v10.682A8.31,8.31,0,0,1,763.121,138h-.25a8.175,8.175,0,0,1-8.169-8.169v-1.357a2.824,2.824,0,0,1,2.763-2.808l1.9-.035a2.8,2.8,0,0,1,2.859,2.813v1.322a.7.7,0,0,0,.561.711.656.656,0,0,0,.746-.646V119a2.161,2.161,0,0,1,2.157-2.157h.4V91.082a4.511,4.511,0,0,0-3.154,3.224v1.1a1.2,1.2,0,0,1-1.2,1.2l-.07-.01-.07.01a1.205,1.205,0,0,1-1.2-1.2,4.49,4.49,0,0,0-8.88-.951c-.005.315-.005.631-.005.951a1.2,1.2,0,0,1-1.2,1.2l-.045,0-.05,0a1.2,1.2,0,0,1-1.2-1.2,4.49,4.49,0,0,0-8.92-.736c0,.245-.005.491-.005.736a1.2,1.2,0,0,1-1.2,1.2l-.03,0-.03,0a1.2,1.2,0,0,1-1.2-1.2,4.493,4.493,0,1,0-8.986,0,1.2,1.2,0,1,1-2.4,0Zm39.69,23.842v10.587a3.047,3.047,0,0,1-3.449,3.023,3.086,3.086,0,0,1-2.653-3.088v-1.322a.41.41,0,0,0-.411-.41h0l-1.9.03a.418.418,0,0,0-.405.41v1.357a5.779,5.779,0,0,0,5.951,5.766,5.884,5.884,0,0,0,5.591-5.917V119.248Zm15.9-59.687a33.125,33.125,0,0,1,6.563,6.953,48.441,48.441,0,0,1,8.334,23.872,6.867,6.867,0,0,1,8.87-.471,38.79,38.79,0,0,0-23.764-30.354Zm-6.412-1.081a29.511,29.511,0,0,1,5.026,8.259c2.758,6.467,4.47,14.707,4.94,23.6a6.88,6.88,0,0,1,8.89-.38c-1.484-14.895-8.968-27.094-18.853-31.479Zm-5.071-1a45.606,45.606,0,0,1,2.1,9.561,200.4,200.4,0,0,1,1.6,23.251,6.872,6.872,0,0,1,8.9-.28c-.949-16.07-6.13-29.3-12.6-32.528ZM764.4,68.461a204.877,204.877,0,0,0-1.422,21.564,6.869,6.869,0,0,1,8.66.05,202.864,202.864,0,0,0-1.427-21.614c-1.146-8.845-2.473-11.1-2.9-11.618C766.88,57.364,765.554,59.616,764.4,68.461ZM751.668,89.97a6.876,6.876,0,0,1,8.905.375,201.149,201.149,0,0,1,1.6-23.3,45.6,45.6,0,0,1,2.1-9.561C757.815,60.7,752.639,73.917,751.668,89.97Zm-11.313-.055a6.874,6.874,0,0,1,8.88.476c.465-8.915,2.182-17.174,4.946-23.652a29.386,29.386,0,0,1,5.025-8.259c-9.875,4.38-17.354,16.559-18.851,31.435Zm-21.244,52.779h1.4a1.2,1.2,0,1,0,0-2.4h-1.4a1.2,1.2,0,1,0,0,2.4Zm95.683.3-23.642,19.642a8.393,8.393,0,0,1-5.361,1.937H751.338v.551a2.766,2.766,0,0,1-2.763,2.763H719.111a1.2,1.2,0,1,1,0-2.4H740.7V142.7H724.828a1.2,1.2,0,1,1,0-2.4h23.747a2.766,2.766,0,0,1,2.763,2.763v.921h26.975a5.108,5.108,0,0,1,4,1.927h1.2a6.48,6.48,0,0,0,2.823-.651L809.1,134.168a5.3,5.3,0,0,1,5.7,8.83Zm-65.854.06a.363.363,0,0,0-.365-.36H743.1v22.791h5.476a.363.363,0,0,0,.365-.36v-22.07Zm65.193-5.116a2.887,2.887,0,0,0-3.989-1.617L787.383,147.41a8.863,8.863,0,0,1-3.874.891h-.14a4.75,4.75,0,0,1,.07.8,5.129,5.129,0,0,1-5.125,5.126h-21a1.2,1.2,0,1,1,0-2.4h21a2.728,2.728,0,1,0,0-5.456h-2.7v1.747a1.2,1.2,0,1,1-2.4,0v-1.747H751.338v15.8h34.453a6.013,6.013,0,0,0,3.83-1.382l23.636-19.647a2.843,2.843,0,0,0,.876-3.2Z" fill="#fd363b"/>
  </g>
</svg>
