<svg id="Group_127" data-name="Group 127" xmlns="http://www.w3.org/2000/svg" width="98.809" height="120" viewBox="0 0 98.809 120">
  <g id="Group_122" data-name="Group 122" transform="translate(1.203 29.752)">
    <path id="Path_89" data-name="Path 89" d="M398.653,66.627H372.141l-4.7-8.926a3.333,3.333,0,0,0-5.952.1l-7.7,15.909-7.7-15.909a3.338,3.338,0,0,0-5.957-.1l-4.691,8.926H308.922a3.336,3.336,0,0,0,0,6.673h28.529a3.328,3.328,0,0,0,2.953-1.787l2.553-4.856,7.829,16.164a3.334,3.334,0,0,0,6,0l7.829-16.164,2.553,4.856a3.328,3.328,0,0,0,2.954,1.787H398.65a3.336,3.336,0,0,0,0-6.673Z" transform="translate(-305.586 -55.918)" fill="#0c1117"/>
  </g>
  <g id="Group_123" data-name="Group 123" transform="translate(19.273 40.49)">
    <path id="Path_90" data-name="Path 90" d="M352.709,62.92l-2.553-4.856-7.829,16.164a3.334,3.334,0,0,1-6,0L328.5,58.064l-2.553,4.856a3.328,3.328,0,0,1-2.953,1.787h-13.8l27.823,36.7a2.9,2.9,0,0,0,4.62,0l27.828-36.7h-13.8a3.328,3.328,0,0,1-2.956-1.787Z" transform="translate(-309.194 -58.064)" fill="none"/>
  </g>
  <g id="Group_124" data-name="Group 124" transform="translate(5.67 1.198)">
    <path id="Path_91" data-name="Path 91" d="M336.566,80.555a3.335,3.335,0,0,1,3.869-1.652,3.409,3.409,0,0,1,2.118,1.817l7.674,15.844,7.7-15.909a3.333,3.333,0,0,1,5.952-.1l4.7,8.926h16.84l4.285-5.652A20.953,20.953,0,0,0,377.86,50.785h0a20.945,20.945,0,0,0-19.668,5.567l-6.157,6.157a2.565,2.565,0,0,1-3.619,0l-6.157-6.157a20.945,20.945,0,0,0-19.668-5.567h0a20.953,20.953,0,0,0-11.844,33.044l4.285,5.652h16.845Z" transform="translate(-306.489 -50.214)" fill="none"/>
  </g>
  <g id="Group_125" data-name="Group 125" transform="translate(1.2 93.604)">
    <path id="Path_92" data-name="Path 92" d="M305.583,93.87h29.47a1.561,1.561,0,0,0,1.562-1.562V70.237a1.561,1.561,0,0,0-1.562-1.562h-29.47" transform="translate(-305.583 -68.675)" fill="none"/>
  </g>
  <g id="Group_126" data-name="Group 126" transform="translate(32.232 86.936)">
    <path id="Path_93" data-name="Path 93" d="M373.059,67.343a4.132,4.132,0,0,0-1.8.415L348.505,78.847a7.619,7.619,0,0,1-3.349.771h-1.822a3.926,3.926,0,0,0-3.379-1.927H311.782V95.9h35.652a7.209,7.209,0,0,0,4.6-1.662L375.672,74.59a4.094,4.094,0,0,0-2.613-7.247Z" transform="translate(-311.782 -67.343)" fill="none"/>
  </g>
  <path id="Path_94" data-name="Path 94" d="M305.344,143.574a1.2,1.2,0,0,1,1.2-1.2h1.4a1.2,1.2,0,1,1,0,2.4h-1.4a1.2,1.2,0,0,1-1.2-1.2Zm98.481-4.37a5.237,5.237,0,0,1-1.6,5.867L378.59,164.718a8.407,8.407,0,0,1-5.366,1.937H338.773v.551a2.766,2.766,0,0,1-2.763,2.763H306.54a1.2,1.2,0,1,1,0-2.4h21.59V144.776H312.262a1.2,1.2,0,1,1,0-2.4H336.01a2.766,2.766,0,0,1,2.763,2.763v.921h26.972a5.111,5.111,0,0,1,4,1.927h1.2a6.434,6.434,0,0,0,2.823-.656l22.757-11.087a5.4,5.4,0,0,1,2.323-.531,5.241,5.241,0,0,1,4.977,3.492Zm-67.449,26.254V145.136a.363.363,0,0,0-.365-.36H330.53v22.791h5.481a.363.363,0,0,0,.365-.36Zm65.192-25.438a2.826,2.826,0,0,0-2.718-1.912,2.937,2.937,0,0,0-1.271.29l-22.758,11.1a8.966,8.966,0,0,1-3.874.891h-.14a5.225,5.225,0,0,1,.07.8,5.134,5.134,0,0,1-5.131,5.126h-21a1.2,1.2,0,1,1,0-2.4h21a2.728,2.728,0,1,0,0-5.456h-2.7V150.2a1.2,1.2,0,0,1-2.4,0v-1.747H338.773v15.8h34.451a5.98,5.98,0,0,0,3.831-1.387L400.7,143.229a2.835,2.835,0,0,0,.868-3.209Zm-20.754-39.54L356.1,133.073a1.7,1.7,0,0,1-2.708,0L331.72,104.5a1.2,1.2,0,0,0-1.912,1.452l21.671,28.577a4.066,4.066,0,0,0,3.269,1.622h0a4.063,4.063,0,0,0,3.264-1.622l24.714-32.591a1.2,1.2,0,0,0-1.912-1.452ZM327,100.251a1.2,1.2,0,0,0-.236,1.682l.536.706a1.2,1.2,0,1,0,1.912-1.451l-.536-.706a1.2,1.2,0,0,0-1.676-.231ZM315.266,85.975a1.182,1.182,0,0,0,.726-.24,1.2,1.2,0,0,0,.23-1.682,19.754,19.754,0,0,1,29.71-25.9l6.152,6.152a3.768,3.768,0,0,0,5.321,0l6.152-6.152a19.751,19.751,0,0,1,29.706,25.9,1.2,1.2,0,0,0,1.912,1.452,22.153,22.153,0,0,0-33.319-29.047L355.7,62.606a1.366,1.366,0,0,1-1.927,0l-6.152-6.152A22.154,22.154,0,0,0,314.3,85.5a1.2,1.2,0,0,0,.961.473Zm-9.922,7.789a4.541,4.541,0,0,1,4.535-4.535h25.79l4.355-8.279a4.53,4.53,0,0,1,8.095.135l6.628,13.675,6.623-13.675a4.534,4.534,0,0,1,8.1-.135l4.35,8.279h25.79a4.538,4.538,0,1,1,0,9.075H371.082a4.522,4.522,0,0,1-4.015-2.428l-1.447-2.753-6.793,14.026a4.537,4.537,0,0,1-8.165,0l-6.793-14.026-1.447,2.753a4.522,4.522,0,0,1-4.015,2.428H309.879a4.542,4.542,0,0,1-4.535-4.541Zm2.4,0a2.136,2.136,0,0,0,2.138,2.138h28.529A2.129,2.129,0,0,0,340.3,94.76l2.553-4.856a1.2,1.2,0,0,1,1.061-.646h.02A1.2,1.2,0,0,1,345,89.94l7.829,16.163a2.138,2.138,0,0,0,3.844,0l7.824-16.163a1.2,1.2,0,0,1,1.061-.681h.02a1.2,1.2,0,0,1,1.061.646l2.553,4.856a2.13,2.13,0,0,0,1.892,1.141H399.61a2.135,2.135,0,1,0,0-4.27H373.1a1.212,1.212,0,0,1-1.066-.646l-4.69-8.92a2.139,2.139,0,0,0-3.814.06l-7.7,15.913a1.2,1.2,0,0,1-2.158,0l-7.7-15.913a2.139,2.139,0,0,0-3.814-.06l-1.778,3.382-2.913,5.539a1.2,1.2,0,0,1-1.061.646H309.879a2.135,2.135,0,0,0-2.137,2.132Z" transform="translate(-305.34 -49.969)" fill="#fd363b"/>
</svg>
