<svg xmlns="http://www.w3.org/2000/svg" width="119.995" height="119.997" viewBox="0 0 119.995 119.997">
  <g id="Group_148" data-name="Group 148" transform="translate(-53.883 -49.974)">
    <g id="Group_140" data-name="Group 140" transform="translate(105.234 51.229)">
      <path id="Path_104" data-name="Path 104" d="M72.791,92.292a17.023,17.023,0,0,1,8.162-14.538,1.919,1.919,0,0,1,.483-.213V62.975a13.557,13.557,0,0,0-3.21-8.761L76.18,51.8a4.442,4.442,0,0,0-6.782,0L67.35,54.215a13.555,13.555,0,0,0-3.208,8.759V77.541a1.918,1.918,0,0,1,.486.215,17.027,17.027,0,0,1,8.163,14.536Z" transform="translate(-64.142 -50.225)" fill="none"/>
    </g>
    <g id="Group_141" data-name="Group 141" transform="translate(87.048 127.433)">
      <path id="Path_105" data-name="Path 105" d="M87.344,65.449a1.263,1.263,0,0,1-1.261,1.261H78.695V82.683c0,.215,0,.43.01.646L61.461,95.6a2.254,2.254,0,0,0,1.692,4.054l17.7-3.008a46.306,46.306,0,0,0,3.639,8.469h0a3.255,3.255,0,0,0,5.691,0h0a46.3,46.3,0,0,0,3.639-8.469l17.709,3.008a2.252,2.252,0,0,0,1.687-4.054L95.978,83.328c0-.215.01-.431.01-.646V66.71H88.6a1.258,1.258,0,0,1-1.256-1.261Z" transform="translate(-60.509 -65.449)" fill="none"/>
    </g>
    <g id="Group_142" data-name="Group 142" transform="translate(55.084 91.694)">
      <path id="Path_106" data-name="Path 106" d="M83.34,63.249V59.971a1.66,1.66,0,0,0-1.657-1.662h-4.42A1.661,1.661,0,0,0,75.6,59.971v5.516a3.289,3.289,0,0,0,.02.39l-6.762,2.308V64.966A1.656,1.656,0,0,0,67.2,63.309H62.78a1.66,1.66,0,0,0-1.662,1.657v5.521c0,.11.005.22.015.325L56.771,72.3a3.906,3.906,0,0,0,1.266,7.6h31.6V61.1Z" transform="translate(-54.123 -58.309)" fill="none"/>
    </g>
    <g id="Group_143" data-name="Group 143" transform="translate(137.158 91.694)">
      <path id="Path_107" data-name="Path 107" d="M103.391,72.3l-4.365-1.492c.01-.105.015-.215.015-.325V64.966a1.657,1.657,0,0,0-1.662-1.657h-4.42A1.656,1.656,0,0,0,91.3,64.966v3.218l-6.76-2.307a3.29,3.29,0,0,0,.02-.39V59.971a1.66,1.66,0,0,0-1.66-1.662H78.48a1.661,1.661,0,0,0-1.662,1.662V63.25l-6.3-2.15V79.907h31.609a3.906,3.906,0,0,0,1.261-7.6Z" transform="translate(-70.52 -58.309)" fill="none"/>
    </g>
    <g id="Group_144" data-name="Group 144" transform="translate(110.034 56.171)">
      <path id="Path_108" data-name="Path 108" d="M72.794,62.4V58.98a8.794,8.794,0,0,0-2.073-5.672l-1.771-2.1-1.772,2.1A8.771,8.771,0,0,0,65.1,58.98V62.4" transform="translate(-65.101 -51.212)" fill="#0c1117"/>
    </g>
    <g id="Group_145" data-name="Group 145" transform="translate(90.603 78.46)">
      <path id="Path_109" data-name="Path 109" d="M106.583,69.92a5.918,5.918,0,0,1-4.725-5.8V57.7a2.034,2.034,0,0,0-2.032-2.032H93.714a2.02,2.02,0,0,0-1.056.3A17.022,17.022,0,0,0,84.5,70.5a17.026,17.026,0,0,0-8.162-14.535,2.006,2.006,0,0,0-1.058-.3H69.168A2.034,2.034,0,0,0,67.135,57.7v6.427a5.918,5.918,0,0,1-4.725,5.8,1.521,1.521,0,0,0-1.191,1.5v29.632a4.846,4.846,0,0,0,4.844,4.845H83.238a1.263,1.263,0,0,0,1.261-1.261,1.258,1.258,0,0,0,1.256,1.261h17.174a4.846,4.846,0,0,0,4.845-4.844V71.422a1.521,1.521,0,0,0-1.191-1.5Z" transform="translate(-61.219 -55.665)" fill="none"/>
    </g>
    <g id="Group_146" data-name="Group 146" transform="translate(109.063 107.211)">
      <path id="Path_110" data-name="Path 110" d="M72.085,61.409h-4.72a2.458,2.458,0,1,0,0,4.915h4.72a2.458,2.458,0,1,0,0-4.916Z" transform="translate(-64.907 -61.409)" fill="#fd363b"/>
    </g>
    <g id="Group_147" data-name="Group 147" transform="translate(109.063 117.047)">
      <path id="Path_111" data-name="Path 111" d="M72.085,63.374h-4.72a2.458,2.458,0,1,0,0,4.915h4.72a2.458,2.458,0,1,0,0-4.916Z" transform="translate(-64.907 -63.374)" fill="#fd363b"/>
    </g>
    <path id="Path_112" data-name="Path 112" d="M110.034,68.559a1.2,1.2,0,0,1-1.2-1.2v-3.42a10,10,0,0,1,2.363-6.447l1.767-2.1a1.2,1.2,0,0,1,1.837,0l1.772,2.1a10,10,0,0,1,2.358,6.447v3.419a1.2,1.2,0,0,1-2.4,0V63.939a7.606,7.606,0,0,0-1.792-4.9l-.851-1.011-.856,1.011a7.607,7.607,0,0,0-1.792,4.9v3.419a1.2,1.2,0,0,1-1.206,1.2ZM75.992,112.1H75a1.2,1.2,0,0,0,0,2.4h.991a1.2,1.2,0,0,0,0-2.4Zm97.886-2.708a5.115,5.115,0,0,1-5.111,5.106H138.36v9.355a6.05,6.05,0,0,1-6.047,6.042h-8.584V144.7l16.728,11.9a3.454,3.454,0,0,1-2.588,6.217l-16.688-2.838a47.3,47.3,0,0,1-3.409,7.7,4.45,4.45,0,0,1-7.783,0,47.291,47.291,0,0,1-3.409-7.7l-16.688,2.838a3.452,3.452,0,0,1-2.583-6.217l16.723-11.9V129.891H95.448a6.05,6.05,0,0,1-6.047-6.042v-9.355h-9.24a1.2,1.2,0,0,1,0-2.4H89.4V96.164L58.118,106.821A2.71,2.71,0,0,0,59,112.1H70.8a1.2,1.2,0,0,1,0,2.4H59a5.106,5.106,0,0,1-1.652-9.941l3.534-1.206v-5A2.865,2.865,0,0,1,63.745,95.5h4.42a2.86,2.86,0,0,1,2.858,2.858v1.542l4.34-1.482V93.356A2.861,2.861,0,0,1,78.224,90.5h4.42A2.86,2.86,0,0,1,85.5,93.356v1.6l3.969-1.351a2.718,2.718,0,0,1,2.082-2.067,4.73,4.73,0,0,0,3.769-4.62V80.492a3.23,3.23,0,0,1,3.229-3.229h5.481V63.939a14.815,14.815,0,0,1,3.494-9.545l2.047-2.418a5.634,5.634,0,0,1,8.614,0l2.047,2.418a14.815,14.815,0,0,1,3.494,9.545V77.264h5.481a3.23,3.23,0,0,1,3.229,3.229V86.92a4.73,4.73,0,0,0,3.769,4.62,2.718,2.718,0,0,1,2.082,2.067l3.969,1.351v-1.6a2.865,2.865,0,0,1,2.863-2.858h4.42a2.86,2.86,0,0,1,2.858,2.858v5.055l4.34,1.482V98.351a2.86,2.86,0,0,1,2.858-2.858h4.42a2.865,2.865,0,0,1,2.863,2.858v5l3.534,1.206a5.107,5.107,0,0,1,3.466,4.831ZM68.624,98.351a.461.461,0,0,0-.46-.456h-4.42a.458.458,0,0,0-.46.456v4.175l5.341-1.817Zm14.476-5a.458.458,0,0,0-.455-.46h-4.42a.459.459,0,0,0-.46.46V97.6L83.1,95.774Zm23.335-15.567a18.354,18.354,0,0,1,7.448,9.045,18.318,18.318,0,0,1,7.443-9.045V63.939a12.394,12.394,0,0,0-2.923-7.994l-2.047-2.423a3.246,3.246,0,0,0-4.95,0l-2.047,2.423a12.393,12.393,0,0,0-2.923,7.994ZM91.8,108.467h16.268a3.668,3.668,0,0,1,3.454-2.458h1.161V93.3A15.932,15.932,0,0,0,105.1,79.785a.857.857,0,0,0-.43-.12H98.551a.829.829,0,0,0-.831.831v6.427A7.144,7.144,0,0,1,92.034,93.9a.325.325,0,0,0-.235.325v14.25Zm19.721-.06a1.259,1.259,0,1,0,0,2.518h4.72a1.259,1.259,0,0,0,0-2.518ZM91.8,118.3h16.268a3.668,3.668,0,0,1,3.454-2.458h1.161v-2.518H111.52a3.668,3.668,0,0,1-3.454-2.458H91.8Zm19.721-.06a1.259,1.259,0,1,0,0,2.518h4.72a1.259,1.259,0,0,0,0-2.518Zm-6.287,9.25h7.388a.061.061,0,0,0,.06-.06v-4.27H111.52a3.666,3.666,0,0,1-3.454-2.463H91.8v3.148a3.652,3.652,0,0,0,3.649,3.644Zm18.485,20.147V150.9a1.2,1.2,0,0,1-2.4,0v-5.85c0-.125,0-.255,0-.38V129.891h-6.187a2.083,2.083,0,0,1-.305-.02l-.085-.01c-.075-.015-.15-.03-.22-.05l-.08-.02a2.025,2.025,0,0,1-.275-.1l-.03-.015a2.005,2.005,0,0,1-.23-.12l-.03-.015-.035.015a2.011,2.011,0,0,1-.23.12l-.03.015a2.55,2.55,0,0,1-.275.1l-.08.02c-.07.02-.145.035-.22.05l-.085.01a2.037,2.037,0,0,1-.305.02h-6.187v14.776c0,.125,0,.255,0,.38v.25a.914.914,0,0,1-.01.165V150.9a1.2,1.2,0,0,1-2.4,0v-3.254L88.7,158.557a1.055,1.055,0,0,0,.791,1.9l17.709-3.008a1.4,1.4,0,0,1,.2-.015,1.2,1.2,0,0,1,1.146.836,45.134,45.134,0,0,0,3.544,8.249,2.053,2.053,0,0,0,3.589,0,45.132,45.132,0,0,0,3.544-8.249,1.2,1.2,0,0,1,1.346-.821l17.709,3.008a1.055,1.055,0,0,0,.791-1.9ZM135.962,120.7H119.694a3.666,3.666,0,0,1-3.454,2.463h-1.161v4.27a.061.061,0,0,0,.06.06h17.174a3.652,3.652,0,0,0,3.649-3.644Zm0-9.831H119.694a3.668,3.668,0,0,1-3.454,2.458h-1.161v2.518h1.161a3.668,3.668,0,0,1,3.454,2.458h16.268V110.87Zm0-16.653a.319.319,0,0,0-.235-.325,7.144,7.144,0,0,1-5.686-6.973V80.492a.829.829,0,0,0-.831-.831H123.1a.871.871,0,0,0-.43.12A15.932,15.932,0,0,0,115.079,93.3v12.71h1.161a3.668,3.668,0,0,1,3.454,2.458h16.268V94.217Zm23.175,6.492,5.341,1.817V98.351a.458.458,0,0,0-.46-.456H159.6a.461.461,0,0,0-.46.456Zm-14.476-4.935L150,97.6V93.36a.462.462,0,0,0-.46-.46h-4.42a.459.459,0,0,0-.461.46Zm26.819,13.615a2.716,2.716,0,0,0-1.837-2.568L138.36,96.164V112.1h30.408a2.714,2.714,0,0,0,2.712-2.712Z" fill="#fd363b"/>
  </g>
</svg>
