<svg id="Group_65" data-name="Group 65" xmlns="http://www.w3.org/2000/svg" width="98.898" height="119.999" viewBox="0 0 98.898 119.999">
  <g id="Group_50" data-name="Group 50" transform="translate(1.209 1.202)">
    <path id="Path_30" data-name="Path 30" d="M689.347,62.278a56.284,56.284,0,0,1-38.4-15.141l-.005,0a56.278,56.278,0,0,1-38.407,15.146H602.7v29.01a70.456,70.456,0,0,0,4.43,24.541h0q.864,2.343,1.9,4.63l.015.03q1.028,2.268,2.213,4.475l.035.07c.19.35.38.7.571,1.041l.025.045q.908,1.629,1.907,3.214l.07.1c.2.315.391.626.6.936l.085.13c.215.335.441.671.666,1.006h0q.7,1.036,1.437,2.047l.1.145c.2.275.405.556.615.831l.146.2.63.826.115.145q.751.969,1.547,1.917l.14.17c.21.25.426.506.636.751l.21.245c.205.235.405.466.611.7l.205.23c.245.275.49.546.74.816l.07.08c.28.3.565.606.846.9l.165.17c.225.235.451.465.676.7l.266.265c.2.2.4.4.6.606l.275.275c.22.215.44.425.666.641l.215.2c.3.28.59.561.891.836l.15.135c.25.23.5.456.751.681l.3.265c.21.185.421.37.631.551l.326.285c.215.18.43.365.645.546l.3.25c.31.26.626.521.941.776l.005.005,19.872,16.022,15.9-12.818,3.975-3.2V148.7c.315-.255.631-.516.941-.776l.3-.245c.22-.185.436-.365.651-.551l.325-.285c.21-.18.415-.36.626-.541l.3-.27c.245-.22.49-.445.731-.666l.165-.15c.3-.275.6-.556.891-.836l.21-.2c.225-.215.446-.425.666-.646l.28-.27.6-.6.27-.275c.22-.225.435-.451.656-.676l.185-.19.841-.9.045-.05c.255-.275.511-.561.766-.841l.205-.23.6-.691.22-.25c.205-.24.41-.486.616-.726l.165-.2c.521-.631,1.036-1.266,1.536-1.912l.1-.135c.215-.275.425-.551.636-.826l.155-.2c.2-.265.4-.536.6-.806l.125-.175q1.088-1.494,2.092-3.033l.085-.13c.2-.3.39-.606.586-.911l.085-.14c.661-1.051,1.291-2.112,1.9-3.194l.02-.03.571-1.036.05-.1c.185-.35.37-.706.555-1.056l.01-.02c.571-1.106,1.116-2.232,1.632-3.364l.02-.05c.165-.365.33-.736.491-1.1l.01-.03c.5-1.146.961-2.308,1.4-3.474h0a70.44,70.44,0,0,0,4.46-24.621V62.278Z" transform="translate(-602.7 -47.132)" fill="none"/>
  </g>
  <g id="Group_51" data-name="Group 51" transform="translate(62.944 52.039)">
    <path id="Path_31" data-name="Path 31" d="M615.03,63.266h24.792l-3.879-5.206a1.93,1.93,0,0,0-1.542-.771H615.03Z" transform="translate(-615.03 -57.289)" fill="none"/>
  </g>
  <g id="Group_52" data-name="Group 52" transform="translate(62.944 58.013)">
    <path id="Path_32" data-name="Path 32" d="M615.03,58.483v49.9l2.4-1.937,3.975-3.2v0c.315-.255.631-.516.941-.776l.3-.245c.22-.185.435-.365.651-.551l.325-.285c.21-.18.415-.36.626-.541l.3-.27c.245-.22.49-.445.731-.666l.165-.15c.3-.275.6-.556.891-.836l.21-.2c.225-.215.446-.425.666-.646l.28-.27.6-.6.27-.275c.22-.225.435-.451.656-.676l.185-.19.841-.9.045-.05c.255-.275.511-.561.766-.841l.205-.23.6-.691.22-.25c.205-.24.41-.486.616-.726l.165-.2c.52-.631,1.036-1.266,1.537-1.912l.1-.135c.215-.275.425-.551.636-.826l.155-.205c.2-.265.4-.536.6-.806l.125-.175q1.088-1.494,2.092-3.033l.085-.13c.2-.305.39-.606.586-.911l.085-.14c.4-.626.776-1.256,1.151-1.9V58.483Z" transform="translate(-615.03 -58.483)" fill="none"/>
  </g>
  <g id="Group_53" data-name="Group 53" transform="translate(71.093 85.514)">
    <path id="Path_33" data-name="Path 33" d="M623.921,63.977h-6.037a1.228,1.228,0,0,0-1.226,1.226V79.389a1.159,1.159,0,0,0,.05.325l.07-.06.325-.285c.21-.18.416-.36.626-.541l.3-.27c.245-.22.49-.445.731-.666l.165-.15c.3-.275.6-.556.891-.836l.21-.2c.225-.215.446-.425.666-.646l.28-.27.6-.6.27-.275c.22-.225.435-.451.656-.676l.185-.19.841-.9.045-.05c.255-.275.511-.561.766-.841l.205-.23.6-.691V65.2a1.225,1.225,0,0,0-1.224-1.223Z" transform="translate(-616.658 -63.977)" fill="none"/>
  </g>
  <g id="Group_54" data-name="Group 54" transform="translate(11.166 58.013)">
    <path id="Path_34" data-name="Path 34" d="M605.888,83.976c.2.315.39.626.6.936l.085.13c.215.335.441.671.666,1.006h0q.7,1.036,1.436,2.047l.1.145c.2.275.405.556.615.831l.146.2.631.826.115.145q.751.969,1.547,1.917l.14.17c.21.255.426.506.636.751l.21.245.435.5V87.4a1.419,1.419,0,0,1,1.417-1.417h8.419A1.418,1.418,0,0,1,624.5,87.4v16.969l8.564,6.908V58.483L605.922,69.035a1.938,1.938,0,0,0-1.236,1.807V82c.37.626.746,1.251,1.131,1.867Z" transform="translate(-604.686 -58.483)" fill="none"/>
  </g>
  <g id="Group_55" data-name="Group 55" transform="translate(19.731 85.512)">
    <path id="Path_35" data-name="Path 35" d="M616.233,63.977h-8.419a1.419,1.419,0,0,0-1.417,1.417v6.417l.175.2.205.23c.245.275.49.546.74.816l.07.08c.28.3.565.606.846.9l.165.17c.225.235.451.465.676.7l.266.265c.2.205.4.4.606.606l.275.275c.22.215.44.425.666.641l.215.205c.3.28.591.561.891.836l.15.135c.25.23.5.456.751.681l.3.265c.21.185.421.37.631.551l.326.285c.215.18.43.365.645.546l.3.25c.31.26.626.521.941.776l.005,0,1.407,1.131V65.394a1.419,1.419,0,0,0-1.416-1.417Z" transform="translate(-606.397 -63.977)" fill="none"/>
  </g>
  <g id="Group_56" data-name="Group 56" transform="translate(39.551 33.044)">
    <path id="Path_36" data-name="Path 36" d="M618.84,138.1V124.35a3.214,3.214,0,1,1,6.428,0V135.2l8.484-6.843V54.636a1.142,1.142,0,0,0-1.146-1.141H611.5a1.141,1.141,0,0,0-1.141,1.141v76.62Z" transform="translate(-610.359 -53.495)" fill="none"/>
  </g>
  <g id="Group_57" data-name="Group 57" transform="translate(48.032 85.512)">
    <path id="Path_37" data-name="Path 37" d="M615.264,63.977a3.214,3.214,0,0,0-3.213,3.214V96.113l1.416,1.141,5.011-4.039V67.191a3.217,3.217,0,0,0-3.214-3.214Z" transform="translate(-612.051 -63.977)" fill="none"/>
  </g>
  <g id="Group_58" data-name="Group 58" transform="translate(48.031 38.004)">
    <rect id="Rectangle_23" data-name="Rectangle 23" width="6.428" height="6.428" rx="0.197" fill="#0c1117"/>
  </g>
  <g id="Group_59" data-name="Group 59" transform="translate(48.031 48.824)">
    <rect id="Rectangle_24" data-name="Rectangle 24" width="6.428" height="6.428" rx="0.197" fill="#0c1117"/>
  </g>
  <g id="Group_60" data-name="Group 60" transform="translate(48.031 59.644)">
    <rect id="Rectangle_25" data-name="Rectangle 25" width="6.428" height="6.428" rx="0.197" fill="#0c1117"/>
  </g>
  <g id="Group_61" data-name="Group 61" transform="translate(42.626 26.223)">
    <path id="Path_38" data-name="Path 38" d="M628.21,58.959H610.971v-4.34a2.489,2.489,0,0,1,2.493-2.488h12.253a2.489,2.489,0,0,1,2.493,2.488Z" transform="translate(-610.971 -52.131)" fill="none"/>
  </g>
  <g id="Group_62" data-name="Group 62" transform="translate(26.324 45.24)">
    <path id="Path_39" data-name="Path 39" d="M612.686,71.913V55.931h-4.971V73.846Z" transform="translate(-607.715 -55.931)" fill="none"/>
  </g>
  <g id="Group_63" data-name="Group 63" transform="translate(15.307 45.24)">
    <path id="Path_40" data-name="Path 40" d="M610.485,55.931h-4.972v22.2l4.972-1.933Z" transform="translate(-605.513 -55.931)" fill="none"/>
  </g>
  <g id="Group_64" data-name="Group 64" transform="translate(48.031 70.682)">
    <rect id="Rectangle_26" data-name="Rectangle 26" width="6.428" height="6.428" rx="0.197" fill="#0c1117"/>
  </g>
  <path id="Path_41" data-name="Path 41" d="M666.6,88.808v1.121a1.2,1.2,0,0,1-2.4,0V88.808a1.2,1.2,0,0,1,2.4,0Zm-8.485,1.532a2.19,2.19,0,0,1-2.187,2.187H651.47a2.19,2.19,0,0,1-2.187-2.187V85.885A2.19,2.19,0,0,1,651.47,83.7h4.455a2.19,2.19,0,0,1,2.187,2.187Zm-2.4-4.24H651.68v4.024h4.029Zm2.4,15.061a2.189,2.189,0,0,1-2.187,2.182H651.47a2.189,2.189,0,0,1-2.187-2.182V96.706a2.19,2.19,0,0,1,2.187-2.187h4.455a2.19,2.19,0,0,1,2.187,2.187Zm-2.4-4.245H651.68v4.029h4.029Zm2.4,15.061a2.19,2.19,0,0,1-2.187,2.187H651.47a2.19,2.19,0,0,1-2.187-2.187v-4.455a2.19,2.19,0,0,1,2.187-2.187h4.455a2.19,2.19,0,0,1,2.187,2.187Zm-2.4-4.24H651.68v4.029h4.029Zm2.4,10.826v4.455a2.19,2.19,0,0,1-2.187,2.187H651.47a2.19,2.19,0,0,1-2.187-2.187v-4.455a2.19,2.19,0,0,1,2.187-2.187h4.455a2.19,2.19,0,0,1,2.187,2.187Zm-2.4.21H651.68V122.8h4.029Zm14.551-6.868h1.852a1.2,1.2,0,1,0,0-2.4h-1.852a1.2,1.2,0,1,0,0,2.4Zm6.6,0h1.852a1.2,1.2,0,1,0,0-2.4h-1.852a1.2,1.2,0,1,0,0,2.4Zm6.6,0h1.852a1.2,1.2,0,1,0,0-2.4h-1.852a1.2,1.2,0,1,0,0,2.4Zm-13.2,5.8h1.852a1.2,1.2,0,1,0,0-2.4h-1.852a1.2,1.2,0,1,0,0,2.4Zm6.6,0h1.852a1.2,1.2,0,1,0,0-2.4h-1.852a1.2,1.2,0,1,0,0,2.4Zm6.6,0h1.852a1.2,1.2,0,1,0,0-2.4h-1.852a1.2,1.2,0,1,0,0,2.4Zm-13.2,5.8h1.852a1.2,1.2,0,1,0,0-2.4h-1.852a1.2,1.2,0,1,0,0,2.4Zm6.6,0h1.852a1.2,1.2,0,1,0,0-2.4h-1.852a1.2,1.2,0,1,0,0,2.4Zm6.6,0h1.852a1.2,1.2,0,1,0,0-2.4h-1.852a1.2,1.2,0,1,0,0,2.4ZM701.35,63.241v29.01a71.591,71.591,0,0,1-4.53,25.027l-.005.015c-.44,1.181-.921,2.368-1.421,3.529l-.015.04c-.16.365-.325.736-.49,1.106l-.025.055c-.521,1.146-1.081,2.3-1.657,3.419l-.015.025c-.18.35-.371.711-.561,1.066l-.05.1c-.19.355-.386.706-.581,1.056l-.015.025q-.758,1.351-1.577,2.683c-.12.2-.24.385-.355.571l-.085.14c-.2.31-.4.616-.6.921l-.085.135c-.681,1.041-1.4,2.077-2.127,3.083l-.13.18c-.2.27-.4.546-.606.816l-.155.21c-.21.28-.426.561-.641.836l-.1.14c-.511.651-1.036,1.3-1.567,1.937l-.17.2c-.2.245-.41.491-.62.736l-.225.255h0c-.2.235-.405.471-.61.7l-.21.235c-.255.285-.515.571-.776.856l-.045.05c-.28.3-.565.611-.856.911l-.185.2c-.22.23-.44.461-.666.686l-.275.28c-.2.2-.406.4-.61.606l-.28.275c-.225.225-.45.441-.676.661l-.215.2c-.3.285-.6.566-.9.846l-.17.155c-.245.225-.5.451-.746.671l-.31.275q-.308.278-.631.556l-.33.285c-.22.185-.441.37-.656.556l-.3.255c-.32.26-.636.526-.956.781l-.01.005-4.375,3.529-2,1.617h0l-13.49,10.881a1.21,1.21,0,0,1-.756.265,1.4,1.4,0,0,1-.2-.015,1.248,1.248,0,0,1-.55-.25l-1.422-1.146h0l-8.484-6.843h0l-8.564-6.908h0l-1.4-1.131v-.005c-.32-.26-.64-.521-.956-.781l-.3-.255c-.22-.185-.435-.37-.656-.556l-.335-.29-.631-.556-.306-.27q-.39-.345-.766-.691l-.15-.14c-.3-.28-.606-.561-.906-.846l-.22-.21c-.225-.215-.451-.43-.671-.651l-.28-.275c-.211-.2-.416-.41-.621-.616l-.265-.27c-.23-.235-.461-.476-.686-.711l-.165-.175c-.29-.3-.576-.606-.861-.916l-.075-.08-.751-.826-.205-.235-.14-.16-.04-.045-.055-.06c-.13-.145-.255-.3-.385-.441l-.211-.245c-.22-.255-.435-.511-.651-.766l-.14-.17c-.535-.646-1.066-1.3-1.572-1.952l-.115-.145c-.215-.28-.43-.556-.641-.836l-.15-.2c-.21-.28-.42-.566-.625-.846l-.11-.15c-.5-.686-.986-1.387-1.452-2.077h0l-.01-.01c-.225-.335-.45-.671-.67-1.011l-.085-.13c-.205-.32-.41-.636-.606-.951l-.07-.1-.03-.05-.33-.536c-.546-.886-1.076-1.787-1.577-2.683l-.03-.05c-.19-.345-.385-.7-.576-1.056l-.04-.075c-.8-1.482-1.552-3.013-2.242-4.54l-.02-.04c-.691-1.537-1.341-3.118-1.927-4.7l-.005-.01a71.542,71.542,0,0,1-4.5-24.952V81.63a1.2,1.2,0,0,1,2.4,0V92.251a69.21,69.21,0,0,0,4.355,24.126l0,.01c.565,1.522,1.191,3.048,1.867,4.54l.01.03c.42.926.866,1.852,1.326,2.763v-6.452a3.124,3.124,0,0,1,2-2.928l2.137-.831V92.136a1.2,1.2,0,0,1,1.2-1.2h4.971a1.2,1.2,0,0,1,1.2,1.2v18.509l3.644-1.417V92.136a1.2,1.2,0,0,1,1.2-1.2h4.97a1.2,1.2,0,0,1,1.2,1.2v14.225l2.427-.941a1.2,1.2,0,1,1,.871,2.237l-4.065,1.577h0l-2.158.841-16.733,6.5a.738.738,0,0,0-.47.691V128.1l.125.215c.27.451.546.9.821,1.346l.065.1c.2.31.39.616.59.921l.08.125c.22.335.435.666.66.991v.01l.005.005c.45.661.921,1.336,1.406,2l.1.14c.2.275.406.551.606.821l.15.2c.205.27.41.541.621.811l.1.14c.26.335.526.666.8,1l.03.045v-3.14a2.619,2.619,0,0,1,2.618-2.613h8.419a2.615,2.615,0,0,1,2.613,2.613v16.392l6.167,4.97v-74.1a2.345,2.345,0,0,1,2.342-2.343h.736V75.6a3.7,3.7,0,0,1,3.694-3.689H652.5V66.7a1.2,1.2,0,0,1,2.4,0v5.211h4.925a3.693,3.693,0,0,1,3.689,3.689v3.138h.736a2.347,2.347,0,0,1,2.348,2.343V84.9a1.2,1.2,0,0,1-2.4,0V81.145h-21v75.98l6.082,4.9V135.622a4.415,4.415,0,0,1,8.83,0v23.515l.15-.12,5.931-4.785V94.408a1.2,1.2,0,0,1,2.4,0v57.886l4.425-3.569h.005c.31-.25.621-.506.926-.761l.29-.245.1-.085v-14a2.429,2.429,0,0,1,2.428-2.423H680.8a2.426,2.426,0,0,1,2.427,2.423v2.808c.13-.165.265-.33.391-.5l.1-.135c.21-.27.415-.541.625-.811l.15-.205c.2-.26.391-.526.586-.791l.125-.17c.711-.976,1.4-1.982,2.057-2.988l.09-.135c.19-.3.38-.591.571-.891l.085-.14c.12-.185.235-.37.35-.556.2-.32.4-.661.616-1.026v-21.99H670.261a1.2,1.2,0,1,1,0-2.4H687.8l-2.448-3.289a.735.735,0,0,0-.581-.29h-14.51a1.2,1.2,0,1,1,0-2.4h14.506a3.136,3.136,0,0,1,2.5,1.256l3.879,5.2.015.03.035.05.075.135.025.055a1.419,1.419,0,0,1,.06.2l0,.045c.01.055.015.115.02.175v18.84c.451-.886.886-1.782,1.292-2.688l.015-.025c.171-.38.331-.741.486-1.1l1.116.445-1.1-.476c.485-1.121.946-2.268,1.371-3.409v-.01a69.048,69.048,0,0,0,4.385-24.2V64.442h-8.639A57.286,57.286,0,0,1,651.9,49.722a57.266,57.266,0,0,1-38.407,14.72h-8.64V72.81a1.2,1.2,0,0,1-2.4,0V63.241a1.2,1.2,0,0,1,1.2-1.2h9.841a54.9,54.9,0,0,0,37.592-14.825,1.2,1.2,0,0,1,1.637,0A54.873,54.873,0,0,0,690.31,62.041h9.841a1.2,1.2,0,0,1,1.2,1.2Zm-55.071,15.5h14.836V75.6a1.3,1.3,0,0,0-1.292-1.291H647.571A1.291,1.291,0,0,0,646.28,75.6Zm-16.3,29.551,2.528-.981.045-.015V93.332h-2.573Zm-11.017,4.285,2.573-1V93.332h-2.573Zm13.275,21.247a.214.214,0,0,0-.216-.215H623.6a.214.214,0,0,0-.215.215v5.962l.075.085c.24.27.481.541.726.806l.07.075c.28.3.556.6.836.891l.16.17c.22.225.445.456.666.686l.26.26.6.6.275.27c.215.21.435.42.655.631l.21.2c.29.275.586.551.881.826l.145.135c.245.22.49.445.741.666l.3.265.616.541.325.28c.215.18.425.36.641.541l.29.245c.13.1.255.21.385.315Zm23.476,1.8a2.015,2.015,0,0,0-4.029,0v28.344l.22.175,3.809-3.068Zm25.128-1.987-.03-.025h-6.037l-.025.025v11.892l.1-.09.16-.145c.3-.275.586-.551.876-.826l.206-.2c.225-.21.44-.425.66-.636l.27-.27c.2-.2.4-.39.6-.591l.265-.27c.216-.22.431-.441.646-.666l.18-.185c.28-.3.555-.591.831-.886l.04-.045c.255-.28.506-.556.756-.836l.2-.225.3-.345ZM603.652,78.752a1.2,1.2,0,0,0,1.2-1.2V76.53a1.2,1.2,0,0,0-2.4,0v1.021a1.2,1.2,0,0,0,1.2,1.2Z" transform="translate(-602.452 -46.893)" fill="#fd363b"/>
</svg>
