<svg id="Group_87" data-name="Group 87" xmlns="http://www.w3.org/2000/svg" width="120" height="119.993" viewBox="0 0 120 119.993">
  <g id="Group_80" data-name="Group 80" transform="translate(67.882 62.955)">
    <path id="Path_54" data-name="Path 54" d="M491.229,65.541V70.3a4.854,4.854,0,0,1-3.6,4.69l-33.015,8.774a11.189,11.189,0,0,0-8.319,10.817v12.253H465.9V99.548a6.125,6.125,0,0,1,3.884-5.7L490.8,85.613a10.079,10.079,0,0,0,6.4-9.39V65.541a2.985,2.985,0,0,0-2.983-2.988h0a2.986,2.986,0,0,0-2.988,2.988Z" transform="translate(-446.294 -62.553)" fill="none"/>
  </g>
  <g id="Group_81" data-name="Group 81" transform="translate(28.499 107.238)">
    <path id="Path_55" data-name="Path 55" d="M440.074,71.4h24.777a1.651,1.651,0,0,1,1.657,1.652v9.9H438.422v-9.9a1.647,1.647,0,0,1,1.652-1.652Z" transform="translate(-438.422 -71.4)" fill="none"/>
  </g>
  <g id="Group_82" data-name="Group 82" transform="translate(1.203 62.955)">
    <path id="Path_56" data-name="Path 56" d="M438.94,65.541V70.3a4.854,4.854,0,0,0,3.6,4.69l33.015,8.774a11.189,11.189,0,0,1,8.319,10.817v12.253H464.267V99.548a6.126,6.126,0,0,0-3.883-5.7L439.37,85.613a10.079,10.079,0,0,1-6.4-9.39V65.541a2.985,2.985,0,0,1,2.983-2.988h0a2.986,2.986,0,0,1,2.987,2.988Z" transform="translate(-432.97 -62.553)" fill="none"/>
  </g>
  <g id="Group_83" data-name="Group 83" transform="translate(63.404 107.238)">
    <path id="Path_57" data-name="Path 57" d="M471.83,71.4H447.053a1.651,1.651,0,0,0-1.657,1.652v9.9h28.085v-9.9A1.647,1.647,0,0,0,471.83,71.4Z" transform="translate(-445.396 -71.4)" fill="none"/>
  </g>
  <g id="Group_84" data-name="Group 84" transform="translate(48.009 13.897)">
    <path id="Path_58" data-name="Path 58" d="M465.32,63.764,454.3,52.752,443.291,63.764a3.343,3.343,0,0,0-.971,2.353V84.632a21.22,21.22,0,0,0,23.971,0V66.117a3.343,3.343,0,0,0-.971-2.353Z" transform="translate(-442.32 -52.752)" fill="none"/>
  </g>
  <g id="Group_85" data-name="Group 85" transform="translate(55.959 26.2)">
    <path id="Path_113" data-name="Path 113" d="M0,0H8.069V8.789H0Z" transform="translate(0)" fill="#0c1117"/>
  </g>
  <g id="Group_86" data-name="Group 86" transform="translate(32.915 1.193)">
    <path id="Path_59" data-name="Path 59" d="M466.379,50.214a27.08,27.08,0,0,0-2.5,54.044V115.78h-7.543a2.106,2.106,0,0,0-2.1,2.107v2.272a2.1,2.1,0,0,0,2.1,2.1h7.543v7.383a2.991,2.991,0,0,0,5.982,0v-25.49a27.082,27.082,0,0,0-3.479-53.938Zm0,48.292A21.215,21.215,0,1,1,487.6,77.29a21.215,21.215,0,0,1-21.221,21.216Z" transform="translate(-439.302 -50.214)" fill="none"/>
  </g>
  <path id="Path_60" data-name="Path 60" d="M487.655,156.019h-1.617V144.967a12.41,12.41,0,0,0-9.21-11.978l-10.751-2.853h0l-8.278-2.2-13.985-3.719a3.658,3.658,0,0,1-2.713-3.529v-4.76a4.187,4.187,0,1,0-8.373,0V126.61a11.22,11.22,0,0,0,7.167,10.506L460.9,145.36a4.882,4.882,0,0,1,3.124,4.575v6.087H462.88a2.855,2.855,0,0,0-2.853,2.853v9.9a1.2,1.2,0,1,0,2.4,0v-9.9a.457.457,0,0,1,.456-.456h24.772a.457.457,0,0,1,.456.456v9.9a1.2,1.2,0,1,0,2.4,0v-9.9a2.852,2.852,0,0,0-2.856-2.856Zm-4.02,0H466.428v-6.087a7.28,7.28,0,0,0-4.65-6.812l-21.007-8.239a8.838,8.838,0,0,1-5.645-8.274V115.925a1.787,1.787,0,1,1,3.574,0v4.76a6.054,6.054,0,0,0,4.5,5.846l3.714.991a4.352,4.352,0,0,0,1.667,6.932l16.757,6.6a1.222,1.222,0,0,0,.44.08,1.2,1.2,0,0,0,.435-2.312l-16.757-6.6a1.953,1.953,0,0,1,1.216-3.7l4.035,1.071,21.512,5.721a10,10,0,0,1,7.422,9.655Zm64.894-44.283a4.2,4.2,0,0,0-4.19,4.19v4.76a3.658,3.658,0,0,1-2.713,3.529l-13.736,3.653-8.519,2.262h-.005l-10.746,2.853a12.41,12.41,0,0,0-9.21,11.978v11.052h-1.617a2.852,2.852,0,0,0-2.853,2.853v9.9a1.2,1.2,0,1,0,2.4,0v-9.9a.457.457,0,0,1,.456-.456h24.776a.457.457,0,0,1,.456.456v9.9a1.2,1.2,0,1,0,2.4,0v-9.9a2.855,2.855,0,0,0-2.853-2.853H521.43v-6.087a4.882,4.882,0,0,1,3.124-4.575l21.007-8.244a11.219,11.219,0,0,0,7.167-10.506V115.925a4.193,4.193,0,0,0-4.2-4.189Zm1.787,14.871a8.838,8.838,0,0,1-5.645,8.274l-21.009,8.239a7.283,7.283,0,0,0-4.645,6.812v6.087H501.81V144.967a10,10,0,0,1,7.422-9.655l19.27-5.126,6.276-1.667a1.953,1.953,0,0,1,1.216,3.7l-16.757,6.6a1.2,1.2,0,0,0,.435,2.312,1.224,1.224,0,0,0,.441-.08l16.757-6.6a4.352,4.352,0,0,0,1.667-6.932l3.709-.991a6.053,6.053,0,0,0,4.5-5.846v-4.76a1.787,1.787,0,1,1,3.574,0ZM498.481,86.173a1.2,1.2,0,0,0,0-2.4h-.526V77.384h.526a1.2,1.2,0,0,0,0-2.4H486.964a1.2,1.2,0,0,0,0,2.4h.526v6.387h-.526a1.2,1.2,0,0,0,0,2.4h11.517Zm-6.957-2.4h-1.637V77.384h1.637Zm4.034,0H493.92V77.384h1.637Zm1.837,29.442v.681a1.2,1.2,0,1,1-2.4,0v-.681a1.2,1.2,0,1,1,2.4,0Zm0,17.394V117.652a1.2,1.2,0,1,0-2.4,0v12.954a1.789,1.789,0,1,1-3.579,0v-7.383a1.2,1.2,0,0,0-1.2-1.2h-7.542a.909.909,0,0,1-.906-.906v-2.272a.909.909,0,0,1,.906-.906h6.341v.851a1.2,1.2,0,1,0,2.4,0V106.5l.035,0c.255.01.51.015.766.02l.23,0h.61l.245,0c.235,0,.471-.01.706-.025h.115c.28-.015.556-.035.831-.055h.04V109.5a1.2,1.2,0,1,0,2.4,0v-3.349a28.276,28.276,0,1,0-8.378.145v9.255h-6.341a3.307,3.307,0,0,0-3.3,3.3v2.272a3.307,3.307,0,0,0,3.3,3.3h6.341V130.6a4.189,4.189,0,1,0,8.379,0ZM466.843,78.255a25.88,25.88,0,1,1,28.118,25.783l-.275.02-.331.025-.365.02-.3.01-.4.015h-.255c-.155,0-.31,0-.461,0l-.2,0c-.18,0-.36,0-.535-.01l-.13,0-.615-.03-.07,0c-.225-.015-.45-.035-.671-.055a25.913,25.913,0,0,1-23.506-25.768Zm24.265,22.354c.215.015.436.03.656.04h.2q.376.015.751.015c.255,0,.506,0,.756-.015h.2c.22-.01.44-.025.656-.04l.1,0c.24-.02.475-.04.706-.065l.26-.03c.17-.02.335-.045.506-.065l.35-.055c.17-.025.335-.055.5-.085l.375-.07.285-.06q.42-.09.826-.2l.085-.02.511-.135.03-.01a22.5,22.5,0,0,0,6.516-3.063,1.057,1.057,0,0,0,.12-.1,22.416,22.416,0,1,0-25.572,0c.04.035.08.065.12.1a22.2,22.2,0,0,0,6.521,3.063l.025,0c.17.05.341.1.511.14l.075.02c.28.07.556.135.836.2l.285.06.375.07c.165.03.331.06.5.085l.355.055c.17.02.335.045.506.065l.26.03c.23.025.466.045.706.065Zm-10.25-26.564L475.4,79.516a1.2,1.2,0,0,0,1.7,1.7l2.448-2.448V93.291a20.014,20.014,0,1,1,26.373,0V78.765l2.448,2.448a1.2,1.2,0,1,0,1.7-1.7L504.6,74.042h0L493.571,63.033a1.2,1.2,0,0,0-1.7,0L480.862,74.045Zm9.8,24.116c-.315-.03-.626-.07-.936-.12l-.11-.015c-.29-.045-.581-.1-.871-.155l-.065-.015a19.859,19.859,0,0,1-6.736-2.753V77.244a2.122,2.122,0,0,1,.621-1.5l.435-.435h0l9.725-9.731,9.73,9.731h.005l.436.435a2.142,2.142,0,0,1,.621,1.5V95.1a19.86,19.86,0,0,1-6.737,2.753l-.07.015c-.285.055-.576.11-.866.155l-.11.015c-.31.05-.621.09-.936.12l-.115.01q-.4.038-.8.06l-.24.015c-.3.015-.611.025-.921.025s-.611-.01-.916-.025l-.24-.015q-.4-.023-.8-.06Z" transform="translate(-432.728 -49.982)" fill="#fd363b"/>
</svg>
