<svg xmlns="http://www.w3.org/2000/svg" width="25.052" height="25.77" viewBox="0 0 25.052 25.77">
  <g id="noun-location-1085714" transform="translate(-109.37 -56.875)">
    <path id="Path_151" data-name="Path 151" d="M130.231,56.875a3.676,3.676,0,0,0-3.681,3.681,3.617,3.617,0,0,0,.712,2.16l2.381,3.239a.732.732,0,0,0,.589.294.768.768,0,0,0,.589-.294l2.381-3.239a3.617,3.617,0,0,0,.712-2.16,3.676,3.676,0,0,0-3.681-3.681Zm0,1.473a2.2,2.2,0,0,1,2.209,2.209,2.146,2.146,0,0,1-.417,1.276l-1.792,2.43-1.792-2.43a2.146,2.146,0,0,1-.417-1.276,2.2,2.2,0,0,1,2.209-2.209Zm-14.726,8.344a6.138,6.138,0,0,0-6.136,6.136,6,6,0,0,0,1.153,3.583c.025.049.074.074.1.123l4.295,5.817a.737.737,0,0,0,1.178,0l4.295-5.817.073-.1.025-.024a6.058,6.058,0,0,0,1.153-3.583,6.138,6.138,0,0,0-6.136-6.136Zm13.416.174a.756.756,0,0,0-.629.293l-.442.589A.72.72,0,0,0,128,68.778a.736.736,0,0,0,1.031-.147l.442-.589a.741.741,0,0,0-.147-1.031.706.706,0,0,0-.4-.146Zm-13.416,1.3a4.661,4.661,0,0,1,4.663,4.663,4.52,4.52,0,0,1-.884,2.724v.024l-3.78,5.105L111.8,75.65a.339.339,0,0,1-.074-.1,4.52,4.52,0,0,1-.884-2.724,4.661,4.661,0,0,1,4.663-4.663Zm11.207,1.646a.756.756,0,0,0-.629.293l-.442.589a.736.736,0,0,0,.589,1.178.732.732,0,0,0,.589-.295l.442-.589a.741.741,0,0,0-.147-1.031.706.706,0,0,0-.4-.146Zm-11.207.563a2.454,2.454,0,1,0,1.736.719A2.455,2.455,0,0,0,115.506,70.373ZM125.9,72.714a.722.722,0,0,0-.525.187.691.691,0,0,0-.049,1.031l.491.54a.788.788,0,0,0,.54.245.737.737,0,0,0,.54-1.227l-.491-.54a.734.734,0,0,0-.506-.236Zm2.479,2.7a.721.721,0,0,0-.524.187.734.734,0,0,0-.049,1.031l.491.54a.789.789,0,0,0,.54.245.737.737,0,0,0,.54-1.227l-.491-.54a.734.734,0,0,0-.506-.236Zm2.5,2.7a.721.721,0,0,0-.524.187.734.734,0,0,0-.049,1.031l.491.54a.788.788,0,0,0,.54.245.737.737,0,0,0,.54-1.227l-.491-.54a.734.734,0,0,0-.506-.236Zm2.5,2.7a.722.722,0,0,0-.525.187.744.744,0,0,0-.147.883v.025a.723.723,0,0,0,.736.736h.245a.7.7,0,0,0,.663-.442.706.706,0,0,0-.123-.785l-.344-.368a.734.734,0,0,0-.506-.236Zm-14.686.359a.736.736,0,1,0,0,1.473h.736a.736.736,0,1,0,0-1.473Zm3.681,0a.736.736,0,1,0,0,1.473h.736a.736.736,0,1,0,0-1.473Zm3.681,0a.736.736,0,0,0,0,1.473h.736a.736.736,0,1,0,0-1.473Zm3.681,0a.736.736,0,1,0,0,1.473h.736a.736.736,0,0,0,0-1.473Z" fill="#fd363b"/>
  </g>
</svg>
