<svg xmlns="http://www.w3.org/2000/svg" width="24" height="18.381" viewBox="0 0 24 18.381">
  <path id="Path_114" data-name="Path 114" d="M0,31.728V16.517a1.588,1.588,0,0,1,1.585-1.585H22.415A1.588,1.588,0,0,1,24,16.517v15.21a1.575,1.575,0,0,1-1.585,1.585H1.585A1.577,1.577,0,0,1,0,31.728Zm1.252-15.4,9.663,10.087a1.51,1.51,0,0,0,2.171,0l9.663-10.087a.4.4,0,0,0-.062-.082.385.385,0,0,0-.271-.113H1.586a.386.386,0,0,0-.271.113.4.4,0,0,0-.062.082ZM22.8,18l-6.107,6.375L22.8,31.094Zm-6.937,7.242-1.915,2a2.7,2.7,0,0,1-3.895,0l-1.914-2L1.893,32.113H22.106l-6.245-6.867Zm-8.554-.867L1.2,18V31.095l6.108-6.716Z" transform="translate(0 -14.932)" fill="#fd363b"/>
</svg>
