<svg xmlns="http://www.w3.org/2000/svg" width="24" height="21" viewBox="0 0 24 21">
  <g id="noun-telephone-4428555" transform="translate(-126 -84)">
    <path id="Path_185" data-name="Path 185" d="M132,84h-4.5a1.5,1.5,0,0,0-1.5,1.5v18a1.5,1.5,0,0,0,1.5,1.5H132a1.5,1.5,0,0,0,1.5-1.5v-18A1.5,1.5,0,0,0,132,84Zm.5,19.5a.5.5,0,0,1-.5.5h-4.5a.5.5,0,0,1-.5-.5v-18a.5.5,0,0,1,.5-.5H132a.5.5,0,0,1,.5.5Z" fill="#fd363b"/>
    <path id="Path_186" data-name="Path 186" d="M298.168,112h-13a.5.5,0,1,0,0,1h13a1,1,0,0,1,1,1v15a1,1,0,0,1-1,1h-13a.5.5,0,0,0,0,1h13a2,2,0,0,0,2-2V114A2,2,0,0,0,298.168,112Z" transform="translate(-150.168 -26.5)" fill="#fd363b"/>
    <path id="Path_187" data-name="Path 187" d="M165.836,168h-2a.5.5,0,1,0,0,1h2a.5.5,0,0,0,0-1Z" transform="translate(-35.336 -79.5)" fill="#fd363b"/>
    <path id="Path_188" data-name="Path 188" d="M165.836,214.67h-2a.5.5,0,1,0,0,1h2a.5.5,0,0,0,0-1Z" transform="translate(-35.336 -123.67)" fill="#fd363b"/>
    <path id="Path_189" data-name="Path 189" d="M332,172v-3a1,1,0,0,0-1-1h-8a1,1,0,0,0-1,1v3a1,1,0,0,0,1,1h8A1,1,0,0,0,332,172Zm-9,0v-3h8v3Z" transform="translate(-185.504 -79.502)" fill="#fd363b"/>
    <path id="Path_190" data-name="Path 190" d="M398.17,298.67h-1a.5.5,0,1,0,0,1h1a.5.5,0,1,0,0-1Z" transform="translate(-256.17 -203.17)" fill="#fd363b"/>
    <path id="Path_191" data-name="Path 191" d="M332.83,298.67h-1a.5.5,0,0,0,0,1h1a.5.5,0,1,0,0-1Z" transform="translate(-194.33 -203.17)" fill="#fd363b"/>
    <path id="Path_192" data-name="Path 192" d="M463.5,298.67h-1a.5.5,0,1,0,0,1h1a.5.5,0,1,0,0-1Z" transform="translate(-318 -203.17)" fill="#fd363b"/>
    <path id="Path_193" data-name="Path 193" d="M398.17,345.33h-1a.5.5,0,1,0,0,1h1a.5.5,0,1,0,0-1Z" transform="translate(-256.17 -247.33)" fill="#fd363b"/>
    <path id="Path_194" data-name="Path 194" d="M332.83,345.33h-1a.5.5,0,0,0,0,1h1a.5.5,0,1,0,0-1Z" transform="translate(-194.33 -247.33)" fill="#fd363b"/>
    <path id="Path_195" data-name="Path 195" d="M463.5,345.33h-1a.5.5,0,1,0,0,1h1a.5.5,0,1,0,0-1Z" transform="translate(-318 -247.33)" fill="#fd363b"/>
    <path id="Path_196" data-name="Path 196" d="M398.17,392h-1a.5.5,0,0,0,0,1h1a.5.5,0,0,0,0-1Z" transform="translate(-256.17 -291.5)" fill="#fd363b"/>
    <path id="Path_197" data-name="Path 197" d="M332.83,392h-1a.5.5,0,0,0,0,1h1a.5.5,0,0,0,0-1Z" transform="translate(-194.33 -291.5)" fill="#fd363b"/>
    <path id="Path_198" data-name="Path 198" d="M463.5,392h-1a.5.5,0,1,0,0,1h1a.5.5,0,1,0,0-1Z" transform="translate(-318 -291.5)" fill="#fd363b"/>
  </g>
</svg>
